<?xml version="1.0" encoding="UTF-8" standalone="no"?>
<!DOCTYPE svg PUBLIC "-//W3C//DTD SVG 1.1//EN" "http://www.w3.org/Graphics/SVG/1.1/DTD/svg11.dtd">
<svg width="100%" height="100%" viewBox="0 0 1330 1149" version="1.1" xmlns="http://www.w3.org/2000/svg" xmlns:xlink="http://www.w3.org/1999/xlink" xml:space="preserve" xmlns:serif="http://www.serif.com/" style="fill-rule:evenodd;clip-rule:evenodd;stroke-linejoin:round;stroke-miterlimit:2;">
    <g transform="matrix(1,0,0,1,-93.6285,-5.29807)">
        <path d="M969.684,221.802C969.183,141.598 1010.01,65.496 1077.55,39.307L1262.28,14.88C1442.7,43.667 1456.38,302.21 1327.52,391.399C1300.45,410.132 1267.09,421.394 1227.67,421.486L1051.09,393.497C1001.85,353.388 976.642,299.036 970.943,244.582C958.353,240.66 931.081,240.266 891.475,242.836L892.703,246.173C908.264,238.668 905.256,254.794 906.328,265.729L902.936,298.866C902.936,298.866 907.269,309.407 905.504,341.206C903.833,371.301 896.489,383.847 894.029,390.514C894.029,390.514 886.607,408.746 882.944,412.694C881.207,414.566 877.249,436.931 875.406,442.836C874.223,446.628 866.232,463.187 866.272,476.336C866.315,490.122 865.192,498.154 864.561,504.212C863.903,510.536 855.981,529.085 852.711,543.408C847.934,564.331 829.525,576.987 828.769,583.103C828.769,583.103 826.237,591.293 831.062,612.238C834.059,625.25 837.611,639.495 838.769,654.194C841.538,689.312 910.796,730.279 910.796,730.279C910.796,730.279 953.76,732.955 970.286,746.092C987.586,759.842 1001.18,766.889 1006.93,785.667C1015.29,812.952 1017.46,822.511 1014.17,847.387C1011.46,867.931 980.576,898.456 972.649,903.403C966.359,907.329 946.114,914.199 946.114,914.199C946.114,914.199 950.622,923.195 954.086,941.889C958.334,964.812 949.321,989.997 951.519,996.976C952.674,1000.65 948.372,1022.25 951.519,1044.24C952.498,1051.08 952.785,1066.04 954.086,1068.33C956.374,1072.36 965.449,1079.54 967.602,1086.08C974.3,1106.42 979.686,1133.49 979.686,1133.49L884.655,1144.96L839.587,1140.69C839.587,1140.69 834.829,1117.43 872.122,1096.49C879.301,1092.46 900.517,1074.74 900.443,1066.5C899.83,997.973 856.336,957.337 842.94,934.852C839.756,929.508 830.098,910.895 830.098,910.895C830.098,910.895 800.313,908.598 779.314,913.672C758.581,918.682 744.19,921.942 714.839,921.687C687.053,921.445 664.902,910.616 645.859,894.061C639.383,888.431 639.171,888.192 630.732,888.313C631.161,889.448 638.024,894.959 638.949,920.831C640.039,951.274 629.919,955.498 630.732,975.051C631.348,989.855 630.346,1058.78 643.567,1063.19C651.294,1065.77 662.41,1111.12 659.037,1119.22L502.638,1125.57C502.638,1125.57 500.765,1118.26 505.855,1110.44C509.124,1105.42 510.945,1102.54 515.795,1099.03C525.901,1091.7 556.171,1083.2 567.312,1072.92C574.715,1066.08 588.429,1041.33 583.028,1029.8C582.156,1027.94 576.582,1013.93 570.947,996.976C564.852,978.633 556.992,961.591 554.125,954.162C542.018,922.788 539.884,895.807 536.879,876.859C535.085,865.545 535.381,843.731 533.626,832.788C530.578,813.78 567.312,799.225 567.312,799.225C592.426,782.927 634.767,767.005 683.567,770.005C683.567,770.005 641.665,741.866 623.335,706.819C619.992,700.428 605.13,668.423 598.425,636.583C591.159,602.08 588.156,575.86 588.156,575.86C588.156,575.86 573.139,563.716 567.312,557.81C564.634,555.096 552.315,534.695 552.101,527.949C551.816,518.96 538.605,505.303 536.879,485.749C535.362,468.563 545.348,454.755 551.972,445.922C551.972,445.922 550.223,413.354 554.125,400.166C556.655,391.617 564.353,372.376 570.947,360.026C574.936,352.556 576.114,343.152 578.573,337.755C581.801,330.669 583.028,326.97 583.028,326.97L593.291,284.313L593.86,278.899C568.51,282.635 542.201,286.601 515.025,290.776C520.31,366.186 493.497,441.148 439.869,454.046C374.099,474.706 307.044,489.677 232.953,473.489C132.856,418.677 99.659,235.158 197.237,166.868C254.787,138.834 315.375,129.025 376.492,122.391C457.664,125.558 501.316,194.839 512.663,269.445C540.648,264.85 568.518,260.424 596.247,256.207L597.349,245.722L632.461,225.838L658.204,240.358L653.56,247.771C716.013,238.9 777.638,231.246 838.121,225.272L837.167,219.083L856.579,208.703L869.467,212.821L899.025,201.565L919.775,214.436L909.25,219.006C929.137,217.478 948.883,216.157 968.476,215.062L969.684,221.802ZM842.641,246.87C791.244,251.843 726.915,259.923 652.465,270.435L658.801,282.55L631.587,304.213L625.877,306.956C625.877,306.956 622.245,330.293 621.623,333.474C618.805,347.899 630.718,385.538 629.567,400.166C628.986,407.56 627.614,414.645 627.614,414.645C627.614,414.645 629.007,415.368 634.155,416.929C643.055,419.628 651.091,423.209 658.861,433.232C658.92,433.308 658.979,433.384 659.037,433.46C662.947,438.534 667.273,445.185 670.517,455.504C672.959,463.271 682.38,489.51 684.423,494.705C685.416,497.231 692.999,508.2 692.999,508.2L725.204,520.426L754.07,496.486C754.07,496.486 765.019,487.077 767.824,478.856C769.589,473.683 776.015,460.826 777.9,453.917C784.07,431.297 807.642,419.874 815.255,415.109C816.097,414.582 817.433,412.99 817.32,411.235C817.206,409.452 819.328,403.706 819.888,400.749C820.452,397.762 821.379,392.041 823.506,389.103C824.52,387.702 826.154,382.397 826.063,379.628C825.685,368.117 829.403,353.772 836.332,335.581C840.46,324.741 848.386,309.729 848.386,309.729L850.284,299.078L855.297,258.307L842.641,246.87ZM136.999,324.69L138.755,358.65L113.984,362.249C103.939,356.445 99.336,348.168 104.22,335.579L136.999,324.69Z" style="fill:rgb(255,224,0);"/>
    </g>
    <g transform="matrix(0.848952,0,0,0.848952,4.27818,4.0417)">
        <path d="M782.688,1271.14C782.688,1271.14 821.659,1291.34 833.608,1298.64L843.165,1277.16L877.863,1342.5L829.9,1336.3C829.9,1336.3 782.074,1272.62 782.688,1271.14ZM1078.15,1176.06L1074.48,1231.84L1118.07,1198.16L1085.95,1251.34L1106.79,1235.48L1093.02,1308.14L1067.07,1330.17L1038.92,1333.86L1046.94,1302.87L1032.13,1267.29L1078.15,1176.06ZM374.696,1250.02C374.696,1250.02 427.433,1278.53 442.452,1287.46L390.362,1175.53L485.921,1269.31L474.43,1328.96L419.56,1324.81C419.397,1324.59 374.696,1250.02 374.696,1250.02ZM672.053,1125.59L694.695,1216.57L749.013,1136.78C749.013,1136.78 715.638,1276.78 715.475,1277.02L684.021,1313.23L667.398,1319.2L650.06,1223.07C649.98,1222.57 671.12,1125.22 672.053,1125.59Z" style="fill:rgb(255,224,0);"/>
    </g>
    <g transform="matrix(0.848952,0,0,0.848952,4.27818,4.0417)">
        <path d="M797.448,1284.51C797.555,1284.53 838.985,1309.85 838.985,1309.85C838.985,1309.85 842.711,1292.09 843.153,1292.69C843.153,1292.69 865.026,1332.51 864.518,1332.53L837.525,1330.86C837.396,1330.84 796.861,1284.51 797.448,1284.51ZM1065.7,1322.63L1052.35,1322.63C1051.88,1322.58 1056.35,1295.5 1056.35,1295.5C1056.39,1295.34 1056.43,1295.31 1056.46,1295.27C1056.46,1295.27 1095.05,1249 1095.26,1249.02C1095.66,1249.17 1082.3,1307.31 1082.3,1307.31C1082.28,1307.36 1082.28,1307.42 1082.16,1307.56L1066.04,1322.5C1065.94,1322.57 1065.83,1322.62 1065.7,1322.63ZM397.134,1270.83C396.877,1270.28 444.584,1298.68 444.584,1298.68C444.584,1298.68 465.355,1318.2 464.775,1318.23L424.766,1315.63C424.605,1315.6 397.134,1270.83 397.134,1270.83ZM736.835,1165.53C737.1,1165.23 707.195,1273.81 707.195,1273.81C707.154,1273.91 707.154,1273.91 707.092,1274L682.221,1302.86C681.901,1303.14 671.337,1265.6 671.337,1265.6C671.306,1265.34 671.363,1265.27 671.401,1265.19L736.835,1165.53ZM412.674,1206.84C412.492,1206.32 474.976,1275.68 474.868,1275.9C474.868,1275.9 459.225,1298.59 458.952,1298.19L412.674,1206.84ZM1071.49,1200.59C1071.68,1200.7 1066.95,1250.76 1066.95,1250.76L1095.29,1224.88L1064.91,1271.11C1064.91,1271.11 1048.53,1298.77 1048.19,1298.14L1038.88,1273.77C1038.83,1273.54 1038.87,1273.47 1038.89,1273.39C1038.89,1273.39 1071.15,1200.5 1071.49,1200.59ZM670.331,1149.64C670.503,1149.7 691.489,1229.08 691.406,1229.21L670.848,1255.11C670.409,1255.53 670.174,1255.4 669.974,1254.93L659.951,1217.86C659.935,1217.76 659.935,1217.76 659.938,1217.66C659.938,1217.66 669.944,1149.61 670.331,1149.64Z"/>
    </g>
    <g transform="matrix(1,0,0,1,-93.6285,-5.29807)">
        <path d="M631.395,216.102C636.398,216.204 641.333,217.719 645.591,220.311C652.083,220.696 658.284,222.83 663.319,227.799C665.902,230.348 668.267,233.117 670.369,236.067L670.47,236.211C722.178,227.857 774.098,220.531 826.324,215.391C831.098,207.603 839.354,201.977 847.065,198.002C851.997,195.459 857.954,195.074 863.233,196.824L864.118,197.226L865.123,197.816C865.312,197.726 865.502,197.64 865.693,197.555C868.922,196.144 872.39,195.395 875.844,194.663C885.069,192.708 894.624,191.083 903.938,192.47C912.179,193.698 919.193,199.656 924.921,205.968C924.921,205.968 955.531,203.673 955.531,203.673C959.642,152.219 978,100.021 1015.73,64.192C1030.11,50.544 1047.31,39.701 1066.14,33.755C1066.14,33.755 1069.72,32.33 1072.8,31.338C1090.82,25.54 1109.47,22.374 1128.03,19.041C1165.52,12.31 1203.47,7.443 1241.42,5.686C1272.03,3.37 1303.75,11.466 1330.24,28.704C1366.64,52.396 1392.51,90.566 1407.22,131.063C1429.34,191.922 1428.96,261.143 1403.87,322.501C1386.25,365.575 1353.92,403.767 1311.12,421.809C1297.28,427.644 1282.56,431.424 1267.63,432.896C1227.9,439.582 1187.51,434.627 1147.8,430.662C1121.09,427.995 1093.97,424.831 1068.17,418.942C1067.22,418.725 1066.28,418.49 1065.34,418.236C1045.15,412.787 1027.7,399.51 1013.41,384.041C1012.71,383.271 1012.06,382.456 1011.43,381.628L1011.54,381.78C979.499,348.538 961.748,302.35 956.315,255.382C956.315,255.382 928.771,256.843 928.771,256.843C925.441,262.115 921.84,267.298 917.139,271.407C917.139,271.407 914.629,293.408 914.629,293.408C919.459,314.868 920.899,336.951 920.244,358.67C919.969,367.793 919.058,376.921 917.09,385.842C913.345,402.81 906.359,418.912 898.39,434.398L897.81,435.479C893.185,442.736 887.282,448.765 884.322,457.625C883.933,458.789 883.544,459.953 883.155,461.117L882.599,462.775C882.202,466.383 882.721,469.983 882.347,473.691C879.745,499.46 871.195,523.174 864.78,548.135C861.75,559.726 855.476,570.54 847.085,579.119C846.334,579.887 845.32,581.058 845.32,581.058L844.893,582.34C838.69,595.826 844.906,612.554 848.176,628.741C848.176,628.741 849.785,634.671 850.82,639.462C852.939,649.277 853.689,659.53 858.476,668.138C872.446,687.745 893.138,702.739 913.955,715.729C938.134,720.306 962.565,725.774 981.786,741.414C999.622,755.927 1015.7,773.852 1022.68,795.52C1027.03,808.983 1029.32,822.658 1028.24,837.438C1026.88,856.053 1019.86,874.274 1007.07,889.461C996.019,902.585 981.907,912.882 966.631,920.736C972.296,952.504 961.964,984.333 963.059,1014.94C963.551,1028.7 965.963,1042.11 967.931,1056.08C968.383,1059.22 968.489,1062.41 970.872,1065.09C978.073,1073.19 982.719,1082.77 985.291,1094.32C986.588,1100.14 987.521,1106.04 988.216,1111.96C988.216,1111.96 990.09,1119.85 991.13,1125.67C991.268,1126.44 991.839,1133.08 988.075,1137.42C986.171,1139.61 983.589,1141.16 980.796,1142.02L980,1142.18L885.211,1153.63L882.729,1153.66L837.511,1149.37C837.511,1149.37 830.252,1147.32 827.239,1141.96C826.562,1140.76 826.062,1139.46 825.766,1138.11C822.736,1124.31 831.358,1108.58 841.691,1097.85C849.939,1089.29 860.872,1083.82 870.331,1076.81C875.927,1072.67 880.893,1067.66 885.173,1062.2C886.795,1060.13 885.959,1058.36 885.846,1056.35C883.861,1020.95 865.78,988.355 844.312,960.046C837.843,951.487 831.976,942.376 825.854,933.897L825.352,933.206C785.202,934.533 745.246,938.025 705.616,931.035C688.88,928.084 672.553,922.903 657.084,915.879L656.88,915.786C656.946,916.136 657.008,916.488 657.069,916.839C660.615,937.683 655.243,958.714 649.157,979.177C647.714,984.081 646.394,989.037 646.629,994.123C647.45,1011.95 648.101,1030.07 652.824,1047.38C653.151,1048.58 652.932,1049.37 654.032,1050.39C666.37,1062.02 669.366,1081.82 672.548,1098.97C673.96,1106.59 675.03,1114.52 672.254,1121.85C672.254,1121.85 668.282,1128.75 661.816,1130.27C661.424,1130.36 661.029,1130.41 660.634,1130.46L499.62,1137.29C498.41,1137.23 498.065,1137.14 497.436,1137.01C491.621,1135.8 487.005,1131.37 485.742,1124.78C482.68,1108.78 495.153,1092.39 508.68,1083.91C528,1071.81 551.508,1066.63 566.05,1048.47C567.59,1046.55 569.247,1044.63 570.221,1042.47L570.226,1042.33C566.513,1028.78 564.503,1014.86 558.854,1001.71C552.829,987.668 544.671,974.632 539.666,960.209C531.514,936.719 525.965,912.251 522.682,887.348C520.615,871.672 522.677,855.574 520.572,840.149C519.069,829.134 522.553,817.838 529.678,809.354C538.983,798.274 551.501,790.158 564.107,783.5L586.532,773.738C607.086,766.387 628.671,761.563 650.521,759.284L650.809,759.255C650.347,758.828 649.887,758.399 649.427,757.969C631.218,740.887 616.194,721.16 606.162,697.878C590.791,662.21 582.629,623.637 577.355,585.253L577.282,584.72C576.206,583.525 574.631,581.773 574.547,581.701C574.457,581.623 574.367,581.546 574.277,581.468C574.097,581.312 573.919,581.156 573.74,580.999C564.026,572.405 555.647,562.648 547.925,550.576C542.929,542.738 538.81,534.33 537.38,525.172C535.913,515.971 529.878,508.177 527.455,498.92C523.344,483.214 525.989,465.98 534.229,451.739C535.882,448.88 537.7,446.123 539.595,443.42L540.068,442.752C540.066,442.149 540.062,441.547 540.057,440.944C539.873,422.917 540.082,404.868 546.389,387.692C550.469,376.583 555.262,365.717 560.743,355.243C564.975,346.799 564.184,336.555 568.235,326.953C569.361,324.341 570.523,321.75 571.519,319.091L571.601,318.869L577.028,294.549L530.866,302.542C530.894,303.326 530.919,304.11 530.942,304.894C531.991,342.656 526.301,380.885 507.059,412.64C487.161,445.478 452.149,468.27 414.218,474.477C414.218,474.477 411.645,475.067 409.855,475.481C370.114,484.645 329.081,491.849 288.992,492.362C286.651,492.392 284.309,492.382 281.968,492.329L280.237,492.451C265.904,491.565 251.496,491.788 237.719,487.066C208.709,477.121 184.215,455.429 166.711,429.81C155.118,412.843 146.416,393.984 140.295,374.303L124.439,376.659C123.491,376.857 121.116,377.126 121.116,377.126C105.693,378.482 92.741,361.539 93.676,344.367C94.294,333.014 101.312,322.537 113.872,319.638L129.72,315.735C127.231,276.414 131.669,236.871 153.188,202.975C169.471,177.326 195.6,158.415 223.911,147.48C223.911,147.48 229.86,144.922 234.837,142.991C279.623,125.616 327.997,118.574 375.086,114.71C375.402,114.685 375.718,114.657 376.034,114.633C380.333,114.343 383.435,114.292 387.105,114.32C422.247,114.591 456.608,131.087 479.59,157.728C503.897,185.904 517.31,222.622 524.939,258.017L524.995,258.277C544.262,254.665 563.619,251.141 582.994,247.857C582.994,247.857 583.624,247.904 584.153,246.689C589.592,234.431 603.333,227.968 614.427,223.787C616.789,222.897 618.091,220.285 620.535,218.821C623.639,216.961 627.286,216.129 630.922,216.099C631.159,216.099 631.158,216.099 631.395,216.102ZM552.527,449.353C553.648,447.462 555.17,445.813 556.684,444.18C569.855,429.971 588.378,420.976 607.639,418.518C615.714,417.487 623.83,417.815 632.047,417.717C632.148,417.715 632.249,417.71 632.35,417.702C632.576,417.682 632.766,417.646 632.766,417.646L634.088,417.61C643.612,420.137 652.502,425.908 658.759,433.234C666.023,441.739 669.904,452.597 673.372,463.023C676.798,473.29 680.355,483.522 684.369,493.587C686.3,498.363 689.39,502.704 692.462,506.808C692.974,507.481 693.897,508.322 693.897,508.322C693.897,508.322 724.972,520.968 724.972,520.968L726.223,520.845L740.351,510.919C742.491,508.779 743.711,505.715 745.449,502.923C749.278,496.82 754.638,492.109 760.776,486.771C765.869,482.341 768.334,475.666 770.998,469.541C779.629,449.696 790.782,430.618 807.236,416.387C811.598,412.615 817.987,410.733 820.431,406.857C821.02,405.924 820.946,404.696 821.171,403.488C823.28,392.435 826.017,381.626 826.13,370.151C826.31,356.2 829.018,342.348 834.155,329.404C841.434,311.063 853.429,294.216 852.972,273.193C852.874,268.675 852.377,264.169 851.76,259.685L851.384,258.477L850.472,258.07C845.863,256.339 842.464,252.581 839.701,248.347L839.048,247.35C838.225,245.901 838.465,246.389 838.335,246.133C836.206,241.92 836.014,236.861 835.543,231.836L835.571,230.102C836.609,224.856 839.329,220.032 843.905,216.706C849.276,212.802 854.442,207.367 859.076,210.307L858.807,209.131C854.798,206.777 848.854,212.096 845.42,214.403C844.936,214.731 844.456,215.066 843.985,215.412C840.705,217.821 837.652,220.885 836.244,224.791L835.363,226.28C834.005,227.335 833.986,227.345 832.335,227.826C777.341,233.103 723.272,240.439 668.814,249.634L667.161,249.916L665.275,249.848L663.573,249.031L662.339,247.603C659.556,242.595 655.917,238.146 651.506,234.524C649.472,232.936 646.594,233.034 643.828,233.331L642.237,233.225C640.776,232.585 640.15,232.176 639.471,231.764C634.998,229.083 629.509,227.445 625.904,231.017C624.329,232.578 621.385,234.967 617.939,236.322C610.936,239.105 603.799,242.278 598.571,247.627C596.5,249.745 595.462,252.781 594.966,255.811L594.278,257.585L592.935,258.932L591.163,259.624C567.209,263.621 543.25,268.029 519.306,272.528L517.506,272.509C516.39,272.035 515.239,271.515 514.587,270.522C513.358,268.653 513.509,266.769 513.128,264.86C504.706,223.178 489.594,181.168 456.871,153.219C435.419,134.896 406.017,125.542 378.312,127.58C368.218,127.733 357.746,129.338 347.427,130.629C307.014,135.686 266.539,143.07 229.255,159.307C199.386,170.735 173.023,190.757 158.269,220.409C142.92,251.257 140.242,287.005 143.086,320.797L143.167,321.734L143.021,323.357C142.413,324.637 142.386,325.131 141.155,325.966C140.705,326.27 140.162,326.407 139.666,326.628L116.876,332.24C115.001,332.675 111.602,333.618 109.548,336.3C104.628,342.728 106.011,353.205 110.769,359.476C113.298,362.811 117.447,364.782 121.893,363.954L122.177,363.897L145.57,360.422C147.89,360.499 150.096,361.578 150.82,364.169C150.858,364.305 150.896,364.44 150.934,364.576C151.048,364.984 151.165,365.391 151.281,365.798C162.871,405.955 184.827,442.595 220.997,464.981C234.014,473.036 248.908,478.044 264.165,478.822C269.554,479.097 274.947,479.153 280.334,479.476C280.334,479.476 284.702,479.444 288.424,479.419C306.286,479.267 324.114,477.185 341.868,474.743C365.202,471.534 388.49,467.305 411.228,461.833C448.377,455.974 483.065,432.081 500.362,397.822C515.962,366.924 519.55,330.474 517.583,296.04L517.791,294.382C518.052,293.89 518.229,293.342 518.575,292.906C519.523,291.708 520.038,291.728 521.399,291.222L587.066,279.662L588.871,279.702L590.523,280.43L591.77,281.735L592.423,283.418L592.382,285.223L584.146,322.169C582.744,326.98 580.024,331.391 578.654,336.359C576.409,344.495 576.208,353.147 572.397,360.907C563.269,378.915 554.394,397.417 553.123,417.451C552.531,426.774 553.448,435.822 553.026,445.418C553.026,445.418 552.242,447.985 550.374,450.614C546.86,455.581 543.607,460.781 541.461,466.434C536.51,479.471 537.972,494.431 544.374,506.85C547.361,512.645 549.46,518.415 550.731,525.658C551.478,529.77 553.333,533.64 555.247,537.425C558.959,544.765 563.638,551.573 568.655,558.083L568.814,558.289C573.414,562.919 578.009,567.567 582.949,571.839L583.846,572.657C584.58,573.471 584.634,573.519 584.915,573.818C586.025,574.986 587.171,576.117 588.333,577.232L589.258,578.48C589.986,580.833 590.164,583.324 590.504,585.784C595.877,624.236 604.109,662.282 620.339,697.898C631.911,723.289 651.873,743.902 673.516,761.879L674.539,762.725L675.707,764.174L676.208,765.967L675.963,767.812L675.009,769.411L673.503,770.504C671.581,770.939 669.601,770.957 667.564,771.033C641.258,772.071 615.016,777.136 590.228,786.198C572.001,792.861 553.678,801.251 541.028,815.489C535.704,821.481 532.298,829.234 533.297,837.854C535.354,855.61 533.538,873.76 536.392,891.222C541.175,920.485 546.976,949.569 560.433,976.026C565.177,985.353 570.377,994.559 573.824,1004.46C577.584,1015.26 579.535,1026.56 582.327,1037.64C582.327,1037.64 583.875,1042.56 582.502,1046.67C580.555,1052.5 576.04,1057.13 571.566,1061.68C565.548,1067.78 558.522,1072.85 551.032,1077.02C534.277,1086.35 513.856,1090.14 503.09,1106.67C500.047,1111.34 498.133,1116.79 498.585,1122.33C498.599,1122.5 498.614,1122.67 498.635,1122.84C498.743,1123.71 499.923,1124.31 499.923,1124.31L659.224,1117.56C659.328,1117.53 659.43,1117.49 659.533,1117.45C660.357,1117.14 660.466,1116.37 660.626,1115.75C662.99,1106.51 658.945,1095.87 657.004,1087.13C655.218,1079.08 652.876,1071.08 648.682,1063.89C647.669,1062.15 646.309,1060.63 644.703,1059.43L643.328,1058C641.13,1054.43 640.054,1050.25 639.087,1046.09C635.006,1028.54 634.456,1010.53 633.583,992.47C633.518,991.121 633.461,990.968 633.526,989.894C633.533,989.786 633.915,986.908 634.38,984.522C637.489,968.542 643.818,953.353 644.94,936.526C645.743,924.489 644.004,912.157 638.046,901.592L637.472,899.769L637.684,897.869L638.646,896.216L640.195,895.095L642.065,894.696L643.936,895.087C644.113,895.165 644.29,895.243 644.466,895.32C663.506,903.753 681.889,912.825 704.353,917.198C744.677,925.048 785.674,921.497 826.823,920.198C828.601,920.142 830.538,919.886 832.063,920.944C833.256,921.77 833.955,923.059 834.834,924.233C839.242,930.118 843.059,936.531 847.305,942.562C856.52,955.647 867.072,967.846 875.177,981.596C889.002,1005.05 897.967,1031.46 898.932,1059.08C898.96,1060.19 898.938,1060.42 898.887,1061.07C898.51,1065.93 895.545,1070.23 892.389,1073.84C879.491,1088.57 859.488,1096.66 848.317,1109.71C842.406,1116.62 838.031,1125.15 838.348,1134.7C838.354,1134.89 838.366,1135.09 838.388,1135.28C838.402,1135.4 838.419,1135.53 838.444,1135.65C838.466,1135.77 838.493,1135.88 838.533,1135.99C838.687,1136.42 839.471,1136.54 839.471,1136.54L883.508,1140.72L884.103,1140.71L908.522,1137.77C887.332,1139.61 866.283,1138.11 845.226,1136.14L843.661,1136L841.921,1135.48L840.516,1134.32L839.664,1132.72L839.494,1130.91C840.041,1125.69 842.044,1120.73 844.784,1116.25C844.784,1116.25 845.562,1114.54 847.383,1113.42L847.386,1113.42C848.428,1113.11 848.433,1113.11 849.518,1113.05C849.518,1113.05 851.475,1109.97 852.994,1107.83C854.175,1106.15 855.461,1104.56 856.827,1103.04L857.744,1102.14C871.391,1091.57 887.823,1084.22 897.044,1069.59C898.469,1067.33 899.519,1064.83 899.918,1062.19L899.921,1062.17C899.459,1029.63 887.78,997.768 869.578,970.902C860.658,957.736 850.239,945.822 841.635,932.174C840.205,929.904 839.052,927.357 837.805,924.899C828.122,905.783 818.594,886.582 809.369,867.227C809.369,867.227 808.637,866.283 808.637,866.283C797.38,857.427 787.858,845.175 791.198,829.592C793.427,819.189 800.072,810.364 807.477,802.84C820.631,789.473 838.2,780.779 856.893,778.156C857.25,778.105 857.607,778.053 857.964,778.001C867.19,776.622 876.33,774.6 885.509,772.949L885.778,772.901C874.245,774.287 862.922,776.029 851.278,778C828.047,782.027 806.677,797.317 794.649,817.734C788.863,827.557 787.903,840.427 793.227,850.647C796.563,857.053 802.135,862.088 807.627,866.866C807.627,866.866 810.681,872.167 813.359,877.72C816.089,883.372 818.838,889.014 821.609,894.646L822.059,896.2C822.021,896.738 822.077,897.29 821.946,897.813C821.489,899.635 822.139,899.236 818.585,901.515C809.542,907.313 798.462,908.689 788.173,910.364C759.28,914.998 729.061,915.249 701.051,911.032C680.929,908.002 661.181,901.707 643.146,892.596C635.923,888.993 627.53,887.268 619.733,888.509L618.78,888.605L612.863,888.601C623.825,898.291 634.602,908.99 638.568,923.957C641.602,935.407 639.114,947.48 636.089,959.736C636.089,959.736 632.694,972.253 625.365,974.966C623.781,975.552 622.075,975.82 620.373,975.956C620.373,975.956 628.327,991.947 628.327,991.947L628.806,993.593C630.743,1013.49 632.819,1033.34 639.23,1052.34C640.326,1055.6 641.575,1058.54 644.645,1060.52C650.942,1064.75 651.883,1073.45 653.785,1079.37C657.113,1089.8 659.665,1100.56 659.853,1111.54L659.539,1113.85C659.222,1114.35 658.994,1114.92 658.589,1115.34C657.473,1116.52 656.919,1116.42 655.431,1116.78L504.461,1123.16L502.482,1122.8L500.84,1121.64L499.846,1119.89L499.687,1117.89C501.687,1103.69 517.279,1094.1 531.325,1087.64C548.948,1079.56 566.425,1070.14 578.62,1055C578.961,1054.58 579.294,1054.14 579.617,1053.71C582.911,1049.25 584.71,1043.76 583.215,1037.79C581.298,1029.97 579.892,1022.06 577.641,1014.36C573.625,1000.61 567.658,987.763 560.948,974.887C546.85,947.616 540.843,916.144 536.599,886.566C534.268,870.315 536.392,853.905 534.237,837.544C534.104,836.423 534.115,836.323 534.094,835.779C534.063,834.955 534.082,834.129 534.149,833.306C534.208,832.582 534.305,831.861 534.435,831.146C536.483,819.965 545.656,811.671 554.318,805.352C570.042,793.883 589.208,787.069 607.544,781.665C628.428,775.509 650.138,772.138 671.934,771.813L688.051,772.393C686.573,770.719 686.058,770.542 685.314,770.003C658.006,750.126 633.994,724.674 620.036,694.741C604.944,662.375 597.398,626.826 592.245,591.51L592.117,590.627C592.19,589.105 591.996,588.583 592.934,587.272C594.334,585.316 597.154,584.745 599.538,586.299C599.637,586.363 599.736,586.427 599.834,586.491C605.586,590.163 612.338,592.528 618.894,589.163C627.436,584.779 634.482,577.779 640.918,570.431C630.811,578.68 619.478,586.188 605.906,585.443L604.689,585.21L603.578,584.662L590.548,575.893L590.164,575.605C585.499,571.705 580.902,567.773 576.203,563.863L575.121,562.82L574.588,561.945L570.008,552.104L569.608,550.697C569.423,549.14 569.402,549.143 569.304,548.472C568.427,542.581 567.072,536.77 562.485,532.673C559.617,530.111 556.392,527.973 553.172,525.852L551.771,524.404C550.69,521.248 550.362,518.087 549.269,515.086C545.125,503.709 538.065,493.281 539.402,479.883C540.519,468.684 546.018,458.427 552.383,449.419C553.13,448.333 552.648,449.07 552.648,449.07C552.605,449.166 552.564,449.26 552.527,449.353L552.508,449.383L552.499,449.423C552.327,449.864 552.226,450.279 552.188,450.704L552.499,449.423L552.512,449.389L552.527,449.353ZM901.327,245.845C901.327,245.845 903.714,248.701 905.328,251.393C906.256,252.942 907.34,255.061 907.34,255.061C908.054,255.966 908.057,255.971 908.524,257.025C908.524,257.025 908.891,259.785 907.987,260.855C906.153,263.024 907.879,262.057 904.828,263.009L903.774,264.041L900.619,293.712C901.17,298.826 902.711,303.782 903.587,309.031C904.743,315.959 905.553,322.946 906.063,329.962C906.067,330.016 905.913,333.646 905.633,336.413C905.467,338.025 905.3,339.637 905.12,341.248C904.007,351.23 902.485,361.252 899.134,370.75C894.914,382.711 887.952,393.518 881.059,404.27C880.414,405.255 879.47,406.732 879.47,406.732L871.928,429.105L870.866,430.847L851.757,450.555L857.493,459.847L858.154,461.761C857.663,466.257 855.641,471.307 854.567,476.461C853.956,479.396 853.426,482.347 852.867,485.293C852.867,485.293 852.212,488.429 851.276,490.608C847.711,498.902 839.681,504.425 832.276,509.251C832.015,509.421 831.644,509.684 831.644,509.684L822.363,553.305C821.747,554.813 821.737,554.828 820.634,556.027L798.271,572.982L837.327,658.794C846.615,682.783 868.055,700.962 888.729,715.684C895.042,720.18 901.541,724.407 908.145,728.472C908.324,728.582 908.502,728.691 908.684,728.795C908.885,728.908 909.063,728.992 909.063,728.992L910.75,730.096C911.129,730.106 911.507,730.117 911.886,730.129C913.405,730.178 915.557,730.282 915.557,730.282C927.134,731.635 938.475,734.803 949.414,738.758C965.885,744.714 979.93,756.44 991.716,769.821C1005.04,784.952 1013.9,804.244 1014.7,824.3C1014.7,824.3 1014.63,826.131 1014.61,826.255C1014.57,826.688 1014.52,827.121 1014.47,827.554C1012.38,845.521 1005.58,863.202 993.441,876.93C992.562,877.923 991.63,878.868 990.65,879.762C989.852,880.491 989.022,881.185 988.166,881.845C974.416,892.444 956.138,893.886 939.64,894.387L937.987,894.135C936.434,893.256 935.404,891.891 934.3,889.975C928.277,879.622 921.314,869.892 913.584,860.718C913.384,860.486 912.954,859.898 912.859,860.655C912.731,861.67 913.799,862.444 914.585,863.394C916.212,865.366 917.819,867.354 919.397,869.366C931.362,884.617 942.067,901.428 946.155,921.145C946.418,922.568 946.684,923.99 946.952,925.411C947.152,926.472 947.351,927.532 947.548,928.592C949.656,940.027 950.714,951.399 949.718,963.348C948.499,977.964 946.259,992.502 946.798,1007.2C947.425,1024.28 949.974,1041.15 951.062,1058.31C951.301,1061.67 952.075,1064.86 954.382,1067.65C955.484,1068.99 956.712,1070.2 957.932,1071.43L958.666,1072.39L967.213,1087.23L967.63,1088.19C971.056,1099.43 973.743,1110.89 976.236,1122.42C976.452,1123.42 976.478,1124.43 976.483,1125.43L975.721,1127.18L974.319,1128.48L972.514,1129.09C971.5,1129.22 970.486,1129.34 969.473,1129.47C968.865,1129.55 968.258,1129.63 967.651,1129.71C956.312,1131.22 945.037,1133.07 933.683,1134.73L977.621,1129.42C980.65,1128.05 976.225,1120.34 975.282,1112.9C975.09,1111.31 974.9,1109.73 974.705,1108.14C973.352,1097.34 971.789,1086.43 964.579,1077.72C960.893,1073.29 957.354,1068.82 956.097,1062.95C952.621,1046.5 950.312,1029.56 950.227,1013.08C950.097,988.016 955.289,963.319 955.357,938.09C955.376,930.879 953.851,923.773 952.842,916.606L952.981,914.667L953.905,912.957L955.45,911.777C976.043,902.077 994.757,888.024 1006.11,868.149C1019.13,845.339 1018.3,815.589 1007.5,792.756C998.738,774.252 984.254,758.406 967.732,746.968C951.942,736.037 932.211,732.123 912.86,728.886C911.727,728.681 910.175,728.329 910.175,728.329C907.639,727.292 905.35,725.64 902.993,724.141C882.267,710.962 862.501,695.752 848.049,675.83C846.36,673.251 845.894,672.134 845.158,670.422C841.032,660.835 840.256,650.027 837.806,639.901C832.88,619.543 824.748,598.741 832.072,579.409C832.555,578.134 832.339,577.633 833.526,575.453C836.432,570.119 841.01,567.105 844.009,562.734C851.191,552.266 853.506,539.107 856.934,527.347C860.669,514.594 864.288,501.562 866.421,488.702C867.758,480.822 869.773,473.061 869.564,464.961C869.538,462.951 869.665,461.957 869.845,460.433L870.064,459.408C870.869,457.005 871.673,454.601 872.476,452.197L873.278,449.793C873.278,449.793 875.227,445.79 877.386,442.394C879.956,438.353 882.83,434.517 885.654,430.654L885.929,430.279C895.912,411.179 904.482,391.012 906.634,368.929C907.605,358.969 907.505,348.938 907.062,338.951C906.404,324.142 904.969,309.289 901.686,294.919L901.597,293.386L904.53,266.573L905.168,264.686L906.541,263.242C911.575,259.846 914.999,254.417 918.325,249.118L919.349,246.919L920.298,245.529C921.433,244.744 921.4,244.64 922.741,244.312C915.603,244.823 908.465,245.334 901.327,245.845ZM676.811,528.392L677.453,530.271L677.247,532.246L672.996,545.07C668.234,558.965 658.276,570.711 648.195,581.714C640.385,590.239 631.635,598.637 620.812,602.475C616.516,603.998 611.833,604.28 607.32,603.529L607.213,603.511C613.476,641.099 622.541,679.432 643.846,710.677C657.37,730.51 675.483,747.023 694.938,760.968C694.938,760.968 696.584,762.365 697.682,763.772L697.428,763.441L715.796,778.002L717.02,779.48L717.538,781.327L717.263,783.225L716.24,784.849L714.647,785.917L712.757,786.248L671.795,784.771C638.661,785.275 605.561,793.183 575.534,807.88C565.496,812.793 555.668,818.765 549.38,828.033C546.453,832.345 547.497,838.25 547.877,843.587C548.877,858.2 547.541,872.919 549.844,887.433C553.665,911.518 558.98,935.443 567.513,958.244C567.513,958.244 570.356,965.064 573.124,970.208C577.337,978.006 581.473,985.833 584.656,994.192C589.702,1007.45 593.174,1021.71 595.78,1035.1C597.29,1043.03 596.496,1051.09 592.011,1058.51C586.019,1068.43 576.669,1076.26 567.486,1082.69C553.784,1092.29 537.515,1097.73 523.33,1106.46C521.865,1107.36 520.427,1108.32 519.143,1109.47C519.143,1109.47 646.362,1104.19 646.362,1104.19C645.076,1094.1 641.893,1084.21 638.575,1074.78C638.105,1073.44 637.69,1072.05 636.837,1070.91C636.744,1070.79 633.395,1068.12 632.276,1066.58C628.558,1061.44 626.383,1055.26 624.634,1049.12C619.864,1032.36 617.942,1014.9 616.169,997.456L616.086,996.625L601.14,967.198L600.657,965.519C600.936,962.746 602.092,960.281 606.362,960.612C606.404,960.615 609.305,961.399 611.699,962.046C614.498,962.794 617.388,963.585 620.195,962.994C620.195,962.994 622.127,959.807 623.472,956.61C623.472,956.61 625.331,949.558 626.164,943.954C626.947,938.69 627.265,933.257 626.241,928.109C623.641,915.031 611.674,905.044 601.444,895.969C599.459,894.208 597.427,892.501 595.344,890.856L595.022,890.604L586.365,883.913L585.132,882.466L584.585,880.645L584.817,878.759L585.788,877.124L587.335,876.019L589.196,875.629L618.158,875.645C621.356,875.179 622.132,875.233 624.495,875.378C634.339,875.879 644.068,878.767 653.374,883.289C689.555,900.707 732.332,902.997 772.007,899.369C783.616,898.307 795.368,896.794 806.283,893.046L806.378,893.013C803.653,887.43 800.947,881.828 798.257,876.205C798.257,876.205 793.585,871.891 789.666,867.525C781.984,858.966 776.887,847.869 776.85,836.266C776.772,812.291 795.256,791.127 816.153,777.983C827.552,770.814 840.477,766.489 853.884,764.506C858.634,763.795 863.375,763.035 868.12,762.294C883.93,759.843 899.721,757.632 915.862,758.734C916.839,758.801 917.813,758.904 918.783,759.043C925.797,760.051 932.686,762.766 936.849,768.689C937.019,768.932 937.181,769.18 937.341,769.43L940.975,775.487L941.607,777.365L941.395,779.335L940.377,781.036L938.742,782.154C934.361,782.897 929.483,782.226 924.714,782.316C905.936,782.67 887.4,785.632 868.798,789.189C861.816,790.514 854.665,791.125 847.986,792.977C830.709,797.768 815.7,809.945 806.345,825.204C802,832.291 802.479,841.872 808.029,848.208C810.782,851.35 814.003,854.038 817.291,856.603L818.049,857.35L820.073,859.865C820.073,859.865 825.428,870.812 830.088,880.357C837.331,895.193 844.501,909.939 852.212,924.655C853.361,926.848 855.063,929.067 856.596,931.296C870.193,951.07 885.776,969.152 896.238,991.571C906.203,1012.93 912.204,1036.29 912.84,1059.8C913.446,1082.2 884.912,1098 866.658,1111.63C866.658,1111.63 862.589,1116.08 861.228,1118.9C861.066,1119.23 860.909,1119.57 860.753,1119.9C860.128,1121.25 859.278,1123.21 859.278,1123.21L858.619,1124.31C879.392,1125.96 899.914,1125.99 920.987,1123.24C934.392,1121.49 947.736,1119.29 961.127,1117.48L961.858,1117.38C960.031,1109.33 958.036,1101.32 955.677,1093.41L955.551,1093L947.983,1079.8C942.056,1073.84 938.391,1066.33 937.902,1056.81C936.789,1033.93 932.459,1011.39 934.133,988.517C935.325,972.237 939.332,956.216 936.495,939.732C934.755,930.006 933.174,920.187 929.555,911.052C923.451,895.644 913.376,882.096 902.678,869.346C902.678,869.346 898.668,862.407 900.132,857.059C902.051,850.052 910.045,845.674 917.615,848.162C924.167,850.315 927.705,857.4 931.918,863.011C936.301,868.85 940.417,874.909 944.172,881.189L944.187,881.213C956.092,880.554 968.565,879.514 978.565,873.113C987.204,867.582 991.815,856.981 995.56,848.036C998.916,840.022 1001.96,831.543 1001.79,822.9C1001.63,814.8 998.685,806.727 995.311,799.405C987.423,782.285 973.768,767.981 958.546,757.472C950.454,751.885 940.653,749.158 930.919,746.749C923.391,744.886 915.75,743.12 907.982,743.009L906.618,742.783C904.622,741.784 905.02,741.714 902.568,740.244C875.789,724.035 849.296,705.206 833.345,678.466C833.345,678.466 830.565,674.195 828.722,670.83C827.515,668.624 826.4,666.367 825.461,664.026L825.382,663.826L785.511,576.221C785.511,576.221 783.391,570.049 786.787,565.934C787.261,565.36 787.968,564.628 787.968,564.628L788.578,564.073L810.336,547.576L819.331,505.301L819.67,504.296C823.366,498.326 830.052,496.228 834.681,491.714C840.148,486.382 840.889,477.999 842.645,470.361C843.162,468.113 843.735,465.878 844.377,463.661L839.481,455.331C839.481,455.331 838.709,453.942 838.351,452.39C837.644,449.322 838.228,446.565 840.814,443.23L860.253,423.181L867.387,402.018C867.387,402.018 868.823,399.087 870.066,397.04C875.385,388.278 881.385,379.754 885.211,370.167C890.116,357.874 891.773,344.524 893.132,331.238L893.152,331.032C892.354,319.674 890.621,308.382 887.971,297.302L887.861,296.62C887.713,294.891 887.632,294.894 887.65,293.159L890.053,270.554L872.664,274.919C872.664,274.919 871.848,275.814 871.052,276.2C869.576,276.915 868.127,276.734 866.755,275.965L865.729,275.624C865.715,276.012 865.696,276.4 865.676,276.788C864.272,302.235 846.258,324.563 841.049,350.828C837.921,366.599 840.375,383.071 835.764,398.823C835.53,399.623 835.295,400.422 835.065,401.223C834.955,401.609 834.846,401.995 834.74,402.382C834.463,403.402 834.201,404.427 833.987,405.462C832.492,412.689 829.807,416.703 824.847,420.134C819.652,423.728 814.439,426.993 809.74,431.927C795.728,446.639 786.275,465.357 778.904,484.407C775.288,493.384 764.909,498.137 760.159,504.803C757.22,508.942 754.388,513.158 751.711,517.478C750.609,518.988 748.811,520.751 748.604,520.92C748.472,521.027 748.336,521.131 748.202,521.236L733.085,531.857C731.459,532.806 731.394,532.722 730.804,532.95C727.967,534.046 724.81,534.305 721.87,533.547L720.832,533.246L688.348,520.051C683.614,517.678 680.695,512.611 677.577,507.885C667.601,492.547 663.902,473.745 657.658,456.851C653.47,445.52 645.128,436.397 633.482,431.251C630.447,429.91 626.457,430.412 622.564,430.457C600.656,430.712 578.26,437.947 563.577,455.982C563.577,455.982 561.87,458.36 560.756,460.026C555.082,468.516 550.617,478.295 552.601,488.454C554.528,498.323 560.976,506.724 563.319,517.002C563.319,517.002 568.128,520.277 571.371,523.268C577.992,529.379 580.93,538.673 582.238,547.405C582.238,547.405 585.553,554.783 585.553,554.783C589.193,557.813 592.777,560.89 596.436,563.901L598.432,565.583L608.766,572.538C620.482,572.133 630.352,562.63 639.828,553.96C646.289,548.048 652.628,541.998 659.241,536.313L669.859,527.27L671.612,526.337L673.594,526.226L675.441,526.955C675.898,527.434 676.355,527.913 676.811,528.392ZM833.137,576.595L833.12,577.995C833.126,577.529 833.242,576.14 833.137,576.595ZM838.455,249.947C840.158,250.683 839.44,250.041 842.158,252.951C844.172,255.108 846.572,256.857 848.983,258.536C848.983,258.536 850.789,260.329 851.13,262.237C852.313,272.602 852.333,282.759 848.533,293.441C842.414,310.641 832.603,326.284 828.413,344.419C825.409,357.416 826.356,371.545 824.528,383.394C823.416,390.599 821.165,397.578 819.994,404.763L819.339,406.491L818.059,407.824C813.142,411.222 807.931,414.259 803.462,418.679C786.523,435.43 774.624,456.818 766.079,479.034C766.005,479.215 765.93,479.395 765.853,479.574C763.047,485.865 756,489.383 750.491,494.656L750.368,494.776C746.899,499.485 743.58,504.309 740.461,509.259L739.207,510.577L727.617,518.719L726.235,519.38C724.721,519.552 724.706,519.551 723.218,519.219L695.26,507.863C693.143,506.615 691.856,504.266 690.533,502.298C681.364,488.553 677.529,471.969 672.064,456.146C666.807,441.107 657.658,427.144 642.429,420.017C640.907,419.304 639.371,418.623 637.831,417.95L636.526,417.092C634.42,414.32 635.696,410.348 636.092,406.708C638.008,389.084 634.491,371.141 632.417,353.732C631.818,348.745 631.169,343.766 630.422,338.805C630.422,338.805 630.098,334.828 630.507,331.661C631.815,321.543 633.851,311.372 635.705,301.197C635.705,301.197 636.307,298.456 641.184,296.229C642.503,295.622 643.811,294.991 645.1,294.321C646.112,293.795 647.112,293.247 648.097,292.671C648.899,292.202 649.691,291.715 650.469,291.206C651.078,290.809 651.678,290.398 652.269,289.974C657.543,286.182 662.045,280.957 663.482,274.29L664.18,272.662C665.935,270.923 668.59,270.408 671.095,269.958C692.683,266.081 714.572,263.273 736.428,260.499C769.853,256.258 803.378,252.85 836.933,249.831C837.44,249.87 837.947,249.908 838.455,249.947ZM833.227,263.174C782.126,267.858 730.866,273.789 680.771,281.544C678.737,281.859 676.702,282.168 674.67,282.502C674.67,282.502 672.949,285.894 671.512,288.331C666.369,297.05 657.341,302.94 648.043,307.341L647.722,307.492C647.557,308.369 647.391,309.245 647.224,310.122C645.614,318.533 643.881,326.992 643.268,335.504C643.144,337.223 643.542,338.96 643.789,340.704C645.991,356.378 647.611,372.119 649.154,387.861C649.787,394.685 649.736,401.543 648.961,408.318L648.92,408.666C649.318,408.865 649.715,409.066 650.112,409.269C654.348,411.447 658.462,413.968 662.079,417.091C674.886,428.151 681.879,444.871 687.254,460.651C690.442,469.981 693.753,479.27 697.288,488.478C698.483,491.45 700.498,494.033 702.368,496.683C702.368,496.683 723.886,505.507 723.886,505.507L730.382,500.944C734.289,494.61 738.047,488.33 743.874,483.197C746.447,480.931 749.122,478.784 751.726,476.541C755.719,473.046 756.659,467.328 759.187,461.646C768.883,439.853 781.766,418.899 800.644,403.82C802.945,401.983 805.389,400.328 807.937,398.844C809.985,389.367 812.088,379.9 812.251,370.088C812.696,348.817 818.794,327.928 827.794,308.863C833.504,296.822 840.108,284.803 839.071,271.429C838.941,269.748 838.723,267.282 838.6,267.188C837.153,266.083 836.897,265.849 836.115,265.171C835.197,264.374 833.901,263.113 833.901,263.113C833.676,263.134 833.451,263.154 833.227,263.174ZM332.61,133.779C333.703,134.292 334.83,134.852 335.445,135.864C336.934,138.311 335.463,141.197 332.279,143.243C293.265,168.567 272.832,217.595 268.084,259.497C261.238,319.911 278.003,384.33 320.267,427.692C331.705,439.426 345.214,449.273 360.311,455.638L361.889,456.737L362.883,458.382L363.123,460.29L362.566,462.13L361.309,463.584C358.696,464.813 358.006,464.769 356.672,465.063C354.576,465.524 352.474,465.953 350.366,466.351C343.267,467.693 336.105,468.684 328.923,469.435L325.727,469.39C321.584,468.663 317.544,467.068 313.556,465.473L312.887,465.201C312.887,465.201 313.306,466.598 312.745,467.976C311.181,471.821 303.78,471.063 297.318,471.097C288.761,471.141 280.206,470.868 271.658,470.261C271.034,470.217 270.411,470.17 269.787,470.122C269.777,470.122 268.557,470.027 268.544,470.025C263.486,469.003 259.201,465.91 254.654,463.011L254.661,464.101C254.096,465.524 254.111,466.085 252.787,467.022C251.062,468.242 248.257,467.637 248.243,467.635C245.687,467.233 243.137,466.796 240.594,466.32C240.594,466.32 240.554,467.937 240.554,467.937L239.672,469.735L238.112,470.99L236.169,471.469C234.963,471.231 233.61,470.82 233.606,470.818C233.202,470.639 232.8,470.457 232.399,470.273C226.707,467.65 221.281,464.48 216.122,460.926L214.492,459.264L214.346,458.803C213.986,458.651 213.628,458.497 213.27,458.342C212.741,458.109 212.157,457.846 212.157,457.846C212.157,457.846 208.283,455.078 205.779,452.944C204.769,452.084 203.772,451.209 202.787,450.321C161.828,413.394 143.883,355.365 142.908,299.868C142.335,267.217 148.65,233.465 167.923,206.444C179.611,190.06 195.55,176.656 213.13,167.442C213.13,167.442 211.966,167.91 214.066,166.907C214.066,166.907 216.064,166.181 216.959,166.535C217.598,166.788 218.555,167.168 218.555,167.168C219.792,168.168 220.041,168.685 220.041,168.685L220.65,170.371C224.824,166.094 229.325,162.146 234.131,158.593L235.704,157.625C246.707,153.253 258.01,149.617 269.342,146.436C272.721,145.487 275.878,146.534 276.23,150.546C280.979,146.956 286.003,143.786 291.272,141.078L292.391,140.675C305.108,137.874 317.936,135.597 330.818,133.692C331.415,133.721 332.012,133.75 332.61,133.779ZM464.85,302.436L465.151,302.814L465.677,301.848C466.925,300.771 466.941,300.762 468.488,300.194L511.296,292.782L513.233,292.859L514.968,293.723L516.197,295.222L516.704,297.093C519.029,340.744 513.645,386.588 483.763,421.112C459.417,449.241 420.846,466.406 384.661,460.939C357.646,456.858 333.078,441.22 315.067,420.676C283.094,384.206 268.339,334.059 267.753,287.543C267.206,244.053 278.819,199.557 307.208,166.393C327.559,142.618 357.653,127.361 389.285,128.078C416.318,128.692 442.617,140.353 462.149,159.616C490.562,187.638 504.986,227.804 512.759,267.829L512.983,268.995L512.973,270.804L512.269,272.47L510.98,273.739L509.303,274.417C495.782,276.977 482.26,279.545 468.726,282.067C466.99,282.39 464.275,283.458 462.011,281.283L461.779,281.881L460.465,283.215L458.73,283.918C454.731,284.651 450.732,285.383 446.732,286.106C444,286.601 441.348,287.267 438.507,287.171L436.769,286.32C435.505,284.8 434.518,282.847 433.307,281.22C428.789,275.15 421.445,271.09 413.779,271.741C413.453,271.748 413.128,271.756 412.802,271.766C405.321,272.028 397.789,273.644 391.504,277.631C391.504,277.631 386.186,283.864 384.672,289.865C380.985,304.487 386.928,322.416 399.64,329.277C399.64,329.277 404.832,330.072 409.186,329.888C416.181,329.593 423.296,328.113 429.277,324.439C434.597,321.171 437.31,314.555 438.983,308.067L439.737,306.48C441.02,305.296 441.039,305.284 442.672,304.665L461.142,301.466L463.101,301.549C463.684,301.845 464.267,302.141 464.85,302.436ZM243.124,168.633C242.456,168.89 241.475,169.273 241.475,169.273C239.28,170.901 237.159,172.63 235.115,174.446C213.283,193.848 201.182,221.816 194.904,249.417C181.9,306.585 191.644,369.088 226.3,417.511C237.912,433.737 252.563,448.04 270.563,457.189C273.284,457.398 276.01,457.572 278.739,457.716C278.739,457.716 277.59,456.792 276.42,455.832C253.207,436.693 236.131,410.619 224.531,382.81C201.481,327.551 199.538,263.152 221.943,207.378C227.433,193.711 234.419,180.622 243.143,168.75C243.143,168.75 243.482,168.496 243.124,168.633ZM301.488,151.978C299.791,152.33 298.095,152.69 296.4,153.058L296.25,153.091C270.665,166.553 253.41,192.501 243.328,218.797C219.145,281.873 228.37,357.977 268.689,412.855C283.298,432.739 302.81,449.537 327.053,456.398C327.053,456.398 330.572,456.237 333.458,455.878L333.697,455.848C333.389,455.641 333.081,455.432 332.774,455.223C306.03,436.835 285.533,408.896 272.631,378.526C260.142,349.129 253.986,317.108 253.777,285.187C253.47,238.322 266.564,190.522 299.022,154.761C300.172,153.494 302.092,151.854 301.488,151.978ZM386.406,141.013C363.59,141.309 341.323,150.629 324.438,166.879C298.647,191.701 285.601,227.527 281.666,263.339C276.439,310.898 287.623,360.828 315.157,399.874C329.996,420.918 350.432,438.94 375.221,445.926C405.866,454.563 440.56,443.242 463.868,422.599C476.754,411.186 486.591,396.669 492.971,380.324C501.981,357.245 504.645,331.946 504.133,307.204L477.73,311.747C477.725,312.211 477.717,312.676 477.707,313.141C477.142,337.834 469.481,363.534 449.977,380.253C429.099,398.15 397.014,401.818 372.956,387.915C345.671,372.148 329.707,340.085 325.806,308.859C322.369,281.344 327.93,252 345.732,230.838C361.882,211.638 388.58,201.387 413.268,207.323C441.334,214.071 462.359,239.79 471.186,268.371L471.203,268.425C480.339,266.716 489.472,264.986 498.604,263.256C498.477,262.661 498.347,262.067 498.217,261.472C491.442,230.817 480.586,200.505 460.446,176.846C442.155,155.358 415.08,141.087 387.296,141.01C386.851,141.009 386.851,141.009 386.406,141.013ZM182.249,209.318C159.018,239.075 153.157,279.713 156.6,318.263C157.66,330.133 159.604,341.906 162.359,353.544C162.612,354.613 163.016,355.906 163.016,355.906L164.172,360.652C173.023,392.861 190.254,423.592 216.322,444.863C219.892,447.777 218.434,446.237 217.948,445.695C185.831,409.626 169.336,361.664 165.949,314.54C163.396,279.024 167.86,243.133 182.085,209.879C182.085,209.879 182.751,208.678 182.249,209.318ZM620.894,239.127C620.926,238.976 620.961,238.825 620.997,238.675C621.826,235.413 624.18,233.404 627.249,231.154C631.591,227.971 638.216,230.748 641.467,236.255C641.467,236.255 646.42,231.128 652.008,236.22C654.084,238.134 656.002,240.215 657.739,242.44L658.576,244.148L658.654,246.048L657.961,247.819L656.614,249.162L654.841,249.849L648.454,250.895L646.685,250.842C646.685,250.842 645.447,248.862 645.645,251.754C645.775,253.654 645.69,255.806 645.69,255.806C645.312,257.8 645.34,257.896 645.253,258.779C644.864,262.725 645.223,266.867 647.062,270.436L647.523,271.859L647.506,273.354C646.243,280.548 637.196,283.873 632.792,288.604C624.57,297.438 624.853,311.504 624.966,323.026C625.011,327.543 625.17,332.056 625.487,336.556L626.453,342.421C626.453,342.421 626.868,347.241 627.409,351.199C629.53,366.699 633.586,382.068 633.665,397.537C633.667,397.875 633.668,398.472 633.636,399.033L632.628,408.442C632.454,409.58 632.386,409.741 632.288,410.195C632.02,411.433 631.592,413.136 631.592,413.136C630.517,415.569 628.662,416.597 624.41,416.61C609.866,416.712 595.09,418.649 582.003,424.585C574.534,427.973 567.661,432.631 561.556,438.085L560.051,438.984C557.062,439.458 554.153,437.8 553.85,434.689C553.849,434.68 553.819,431.994 553.814,431.452C553.672,417.658 554.861,404.171 559.949,390.491C563.394,381.228 567.739,372.418 572.106,363.471C577.035,353.183 577.045,341.354 581.754,330.761C582.956,328.047 584.209,325.334 585.041,322.492C585.041,322.492 594.442,280.296 594.442,280.296L594.837,279.199C594.837,279.199 595.61,278.168 595.944,276.85C596.808,273.488 598.02,270.213 599.894,267.256C599.894,267.256 598.261,266.9 598.261,266.9L596.667,265.758L595.689,264.059L595.503,262.106C595.971,260.751 596.422,259.122 596.422,259.122L595.926,257.68C595.925,254.984 596.311,254.258 596.572,252.854C596.572,252.854 597.714,249.539 599.722,247.735C604.397,243.535 610.054,240.509 615.89,238.089L617.76,237.737L619.613,238.168C620.04,238.488 620.467,238.807 620.894,239.127ZM898.626,206.997C902.887,207.098 906.688,209.8 909.984,212.668L911.057,214.035C911.864,216.762 911.458,219.535 907.673,220.724C906.058,221.232 904.092,221.397 902.317,222.04C896.843,224.022 892.057,227.805 888.825,232.673C888.032,233.869 887.727,235.676 887.727,235.676C892.815,229.295 898.893,222.687 906.89,221.53C910.006,221.078 913.186,221.359 916.288,220.89L917.031,220.801L962.768,218.722L964.609,219.015L966.185,220.01L967.24,221.547C968.184,226.306 967.623,231.449 967.83,236.594L967.561,238.343C966.778,239.659 966.703,240.216 965.247,240.931C964.717,241.191 964.108,241.239 963.539,241.393L930.036,243.79L962.929,241.923C962.929,241.923 968.033,241.556 968.475,246.737C968.507,247.108 968.539,247.479 968.572,247.85C972.718,293.578 988.378,338.872 1020.99,372.913C1035.38,388.764 1052.85,402.553 1073.85,406.908C1096.79,411.663 1120.03,414.34 1143.17,417.029C1175.51,420.787 1208.12,423.668 1240.57,422.486C1248.98,422.18 1257.37,421.564 1265.69,420.066C1301.05,416.7 1334.25,398.681 1357.91,372.467C1398.72,327.254 1413.88,261.904 1408.97,200.549C1404.88,149.397 1385.87,98.679 1350.15,62.005C1324.74,35.918 1290.09,17.961 1253.55,18.055C1250.4,18.063 1247.25,18.228 1244.11,18.488C1244.11,18.488 1241.18,18.658 1238.96,18.773C1187.1,21.515 1134.48,28.677 1084.49,41.496C1080.12,42.616 1075.73,43.69 1071.61,45.536C1071.61,45.536 1067,47.024 1063.23,48.5C1026.13,63.031 998.946,98.22 984.165,135.476C974.551,159.706 969.457,185.571 967.973,211.669L967.587,213.273C967.279,213.728 967.047,214.246 966.663,214.639C965.61,215.716 965.109,215.649 963.723,216.016L921.894,219.352C917.723,219.031 915.079,213.849 911.186,210.356C906.482,206.136 900.46,205.042 892.116,205.481C884.694,205.871 876.86,206.001 870.382,209.646C868.83,210.52 867.294,212.449 867.294,212.449C867.294,212.449 864.409,214.294 866.706,213.337C876.637,209.271 887.268,207.042 897.965,206.995C898.185,206.995 898.406,206.994 898.626,206.997ZM1254.42,18.993C1297.14,19.304 1337.82,45.081 1364.14,79.754C1400.7,127.914 1413.87,191.787 1407.41,251.489C1401.7,304.241 1380.14,356.999 1338.06,389.681C1296.6,421.88 1237.62,430.4 1189.61,400.967C1156.07,380.408 1131.96,346.958 1117.56,310.76C1089.51,240.284 1095.79,155.264 1135.99,91.497C1155.54,60.493 1184.67,34.497 1220.17,24.01C1231.28,20.728 1242.88,18.986 1254.42,18.993ZM632.619,251.764C632.518,254.044 632.315,256.753 632.315,256.753C630.953,261.84 626.693,265.706 621.475,267.265C614.846,269.303 609.675,274.718 608.059,281.939C608.059,281.939 607.589,283.291 606.776,284.65C606.776,284.65 597.617,325.635 597.617,325.635C597.617,325.635 595.169,332.26 593.15,337.223C590.127,344.735 589.451,353.012 586.851,360.825C581.569,376.698 571.458,390.849 568.094,408.026C567.455,411.293 567.174,414.615 567.019,417.936C567.019,417.936 571.659,415.296 575.512,413.543C589.356,407.246 604.632,404.371 619.849,403.76L620.101,403.751L620.711,398.054C620.867,380.144 615.15,362.541 613.653,344.688L612.67,338.644L612.62,338.237C611.488,323.384 610.229,308.048 614.873,293.898C617.828,284.894 624.934,277.606 632.891,272.222C633.106,272.076 633.327,271.941 633.537,271.785C633.788,271.595 633.541,271.34 633.467,271.081C631.957,265.655 631.839,259.898 632.793,254.306C632.793,254.306 632.656,250.968 632.619,251.764ZM1253.33,31.951C1222.42,32.362 1192.58,47.2 1170.49,68.944C1125.85,112.872 1108.94,181.555 1114.83,243.651C1118.98,287.395 1134.54,330.623 1165.38,364.186C1187.13,387.861 1216.99,404.937 1248.88,406.51C1288.98,408.488 1329,387.123 1354.01,355.396C1375.4,328.255 1388.01,294.349 1393.19,260.25C1393.19,260.25 1394.01,259.024 1392.81,259.575C1386.91,262.249 1380.27,262.559 1373.68,262.716C1367.03,262.874 1360.38,262.816 1353.74,262.684C1353.74,262.684 1353.66,261.237 1352.63,264.569C1345.35,287.868 1331.61,309.882 1310.93,322.652C1292.78,333.861 1270,336.601 1249.01,328.774C1227.94,320.918 1211.06,303.753 1200.91,284.222C1174.87,234.129 1185.28,165.482 1227,132.097C1238.4,122.965 1252.34,116.798 1266.81,115.604C1289.3,113.749 1312.24,123.405 1327.6,140.203C1340.01,153.773 1348.07,170.925 1352.99,188.731C1363.99,188.616 1375.09,187.839 1386,189.765C1388.87,190.272 1391.65,191.217 1394.25,192.544C1389.03,150.46 1373.11,108.283 1344.89,76.702C1321.82,50.889 1289.55,32.194 1254.26,31.95C1253.95,31.948 1253.64,31.948 1253.33,31.951ZM1187.72,27.461C1189.86,27.588 1191.54,28.974 1192.32,31.381C1192.79,32.826 1191.28,35.104 1191.28,35.104C1190.24,36.224 1182.79,40.538 1176.55,45.278C1144.28,69.777 1122.6,106.807 1110.86,144.787C1091.04,208.91 1096.62,281.104 1130.75,339.91C1139.05,354.21 1149.18,367.537 1160.81,379.138L1161.85,380.727L1162.16,382.599L1161.7,384.44L1160.53,385.939L1158.86,386.843C1144.04,391.263 1129.02,394.988 1113.74,397.241C1113.72,397.244 1112.28,397.455 1112.26,397.455C1111.61,397.447 1110.96,397.363 1110.31,397.317L1108.59,396.387C1107.92,395.813 1107.26,395.232 1106.6,394.645C1106.6,394.645 1106,397.187 1104.21,398.102C1102.24,399.1 1100.59,398.76 1098.83,398.885C1092.28,399.35 1085.7,399.454 1079.15,399.105C1079.15,399.105 1077.55,398.917 1076.28,398.176C1076.24,398.152 1072.77,395.534 1070,393.21C1070,393.21 1069.56,394.925 1069.56,394.925L1068.33,396.472L1066.56,397.359L1064.58,397.424C1058.89,396.373 1053.29,394.908 1047.87,392.933C1047.87,392.933 1043.42,390.462 1039.7,387.813C1011.23,367.528 991.872,335.508 980.843,302.9C963.389,251.294 964.078,193.419 982.311,142.688C993.486,111.59 1011.95,82.566 1038.91,63.022C1050.12,54.892 1062.79,48.698 1076.19,45.398C1076.19,45.398 1077.4,45.089 1078.34,45.232C1080.41,45.548 1082.02,46.972 1082.19,49.807C1082.44,49.625 1082.69,49.444 1082.94,49.264C1088.32,45.385 1094.4,42.492 1099.73,38.721L1101.57,37.945C1111.06,36.216 1120.59,34.688 1130.16,33.358C1130.16,33.358 1131.77,32.655 1133.87,33.205C1135.94,33.746 1137.37,35.343 1137.2,38.337C1141.76,35.735 1146.48,33.395 1151.32,31.33L1151.67,31.183C1152.66,30.768 1152.01,30.722 1154.66,30.462C1155.32,30.398 1155.97,30.335 1156.63,30.273C1165.82,29.4 1175.03,28.729 1184.25,28.245C1184.25,28.245 1186.24,27.46 1187.72,27.461ZM1096.9,55.417C1061.33,77.078 1038.34,116.342 1027.01,157.338C1019.38,184.937 1016.76,213.953 1018.17,242.475C1020.09,281.099 1030.35,319.841 1051.48,352.237C1059.81,365.013 1069.81,376.701 1081.94,386.211L1083.82,386.326C1083.62,386.084 1083.43,385.843 1083.24,385.601C1064.39,361.805 1052.56,333.706 1044.89,304.631C1027.77,239.745 1033.17,167.467 1060.71,108.591C1069.81,89.123 1081.83,70.917 1096.82,55.551C1096.82,55.551 1097.23,55.218 1096.9,55.417ZM1158.04,43.151C1153.2,43.614 1148.73,46.704 1144.14,49.295C1116.75,64.765 1095.83,91.044 1082.43,119.304C1060.21,166.172 1055.49,220.81 1063,272.347C1068.39,309.302 1081.03,345.912 1104.8,374.159C1107.67,377.567 1110.73,380.812 1113.99,383.851L1114.22,384.066C1123.25,382.653 1132.18,380.68 1141,378.396L1142.11,378.106C1101.99,332.1 1083.7,266.855 1087.05,205.473C1090.27,146.373 1111.88,87.07 1154.71,46.719C1156.34,45.189 1158.69,43.091 1158.69,43.091C1158.47,43.111 1158.26,43.131 1158.04,43.151ZM414.46,258.795C425.719,258.989 436.897,264.163 443.68,273.332C443.68,273.332 445.905,273.09 447.353,272.827C441.385,255.017 429.832,237.723 412.275,232.003C403.196,229.045 393.111,229.553 384.124,233.005C367.497,239.392 355.603,254.918 351.058,272.508C343.223,302.827 351.75,338.097 374.484,359.124C387.468,371.133 406.662,377.177 423.747,368.912C434.713,363.608 443.217,353.799 447.904,342.457C451.335,334.153 453.001,325.208 453.515,316.219L453.528,315.986L449.978,316.571C449.921,316.74 449.862,316.909 449.802,317.077C446.706,325.741 441.111,333.426 432.004,337.579C421.535,342.354 409.703,343.87 398.254,342.261L396.648,342.014C381.688,337.359 371.358,317.625 370.783,299.806C370.435,289.031 373.726,277.917 380.915,269.894C388.998,260.874 403.476,258.673 414.46,258.795ZM142.294,328.532L143.625,329.928L144.272,331.745C145.266,339.254 146.601,346.683 148.262,354.051L148.292,355.939L147.565,357.682L146.202,358.99L144.43,359.643C144.43,359.643 121.92,362.976 121.92,362.976C116.963,364.059 115.493,362.827 113.631,361.438C110.063,358.775 108.943,353.925 108.371,349.269C107.795,344.581 107.917,339.489 111.033,335.954C111.033,335.954 113.889,333.977 117.008,333.174L138.581,327.861L140.509,327.801C141.104,328.045 141.699,328.288 142.294,328.532ZM1034.97,83.015C1014.01,102.773 999.758,129.237 991.258,156.917C978.413,198.743 978.509,244.257 989.526,286.297C996.655,313.502 1009.04,339.645 1028.34,360.484C994.593,305.45 987.023,236.926 998.677,173.704C1004.64,141.378 1016.33,109.941 1035.16,82.853C1035.16,82.853 1035.04,82.952 1034.97,83.015ZM415.073,272.71C416.074,272.763 417.451,272.88 417.451,272.88C418.62,273.038 418.769,273.11 419.218,273.219C424.396,274.474 429.08,277.568 432.369,281.745L433.213,283.445L433.302,285.34L432.623,287.112L431.29,288.462L429.527,289.163C426.058,289.765 422.589,290.362 419.118,290.953C419.118,290.953 416.278,297.435 417.874,302.301C418.66,304.698 420.2,306.894 422.497,308.116L431.516,306.596L433.42,306.665L435.134,307.495L436.369,308.945L436.914,310.77L436.678,312.66C434.98,317.584 431.662,321.96 426.945,324.258C425.629,324.898 424.254,325.406 422.956,326.095L421.876,326.504L420.729,326.634C418.04,326.599 415.387,325.655 413.01,324.267C413.01,324.267 412.583,326.922 410.847,328.153C410.847,328.153 408.631,328.941 406.42,328.937C404.248,328.933 401.124,328.63 401.124,328.63C391.67,325.679 385.344,312.17 384.784,300.336C384.422,292.66 386.242,284.664 391.462,278.942C391.462,278.942 396.208,275.837 400.919,274.414L402.783,274.246L404.56,274.831L405.961,276.072L406.698,277.645C407.856,276.381 408.272,276.035 409.149,275.334C410.432,274.309 412.535,273.174 412.535,273.174C413.705,272.768 413.631,272.648 415.073,272.71ZM406.716,328.456C407.962,328.898 405.977,328.156 406.716,328.456ZM1272.87,139.496C1251.35,139.828 1232.27,156.587 1222.8,174.584C1210.53,197.931 1208.03,226.446 1214.52,252.28C1219.4,271.685 1229.79,290.39 1247.01,301.355C1259.89,309.554 1276.2,311.824 1290.99,305.547C1309.08,297.87 1321.67,280.277 1328.19,261.975C1313.13,261.562 1298.14,261.184 1283,259.756C1273.18,258.83 1265.49,249.904 1262.39,240.313C1257.66,225.692 1259.69,208.112 1270.33,197.686C1274.96,193.144 1281.37,190.938 1288.01,190.553C1301.19,189.791 1314.41,189.744 1327.62,189.284L1328.06,189.269C1321.32,168.486 1309.36,147.407 1285.72,141.119C1281.71,140.054 1277.57,139.525 1273.42,139.494C1273.14,139.493 1273.14,139.493 1272.87,139.496ZM591.253,260.97L592.989,261.858L594.204,263.382C595.019,266.593 594.915,270.033 594.8,273.426C594.8,273.426 594.349,276.436 592.432,277.511C591.976,277.766 591.448,277.86 590.956,278.034L424.937,306.661L423.007,306.585L421.278,305.728L420.048,304.239C418.655,301.562 418.167,298.447 418.481,295.431L419.137,293.506L420.481,292.097C424.302,290.549 428.435,290.29 432.495,289.569C484.885,280.226 536.891,269.564 589.306,260.877C589.955,260.908 590.604,260.939 591.253,260.97ZM830.058,228.963C831.056,229.079 831.355,229.208 831.878,229.476C834.546,230.84 834.275,234.542 834.615,237.439C834.842,239.379 835.369,241.27 836.082,243.086L836.399,244.977L835.921,246.833L834.731,248.337L833.034,249.229C833.034,249.229 829.141,249.61 826.221,249.889C782.647,254.089 739.229,259.484 695.988,264.963C683.898,266.511 671.797,268.199 660.066,271.578C660.066,271.578 651.617,272.714 648.085,267.839C644.738,263.219 646.233,255.336 652.413,253.717C668.83,250.096 685.498,247.592 702.128,244.952C743.93,238.316 785.986,233.305 828.24,229.161C828.24,229.161 829.561,228.943 830.058,228.963ZM905.286,262.765C905.699,262.613 906.223,262.165 906.223,262.165C905.91,262.365 905.598,262.565 905.286,262.765ZM856.635,246.63L858.425,247.475L859.88,248.556C861.652,250.516 861.786,250.423 863.14,252.693L863.243,252.984L872.194,261.592L886.638,256.02C886.504,255.971 886.372,255.92 886.239,255.869C880.057,253.409 875.931,247.286 869.396,245.059C863.726,243.127 857.679,245.595 852.529,242.68L852.527,242.679C853.896,243.996 855.266,245.313 856.635,246.63ZM831.969,260.828C832.801,262.12 831.7,260.316 831.969,260.828ZM831.487,259.612C831.552,259.881 831.474,259.735 831.744,260.377C831.744,260.377 831.639,259.598 831.487,259.612ZM1326.15,202.297C1313.06,202.756 1300.05,203.086 1286.93,203.654C1279.36,204.045 1274.45,213.385 1273.34,221.852C1272.01,232.032 1274.55,244.593 1283.8,246.78C1288.28,247.839 1292.98,247.632 1297.7,247.927C1311.13,248.743 1324.58,248.916 1337.99,249.294L1339.43,249.337C1341.13,249.696 1341.17,248.893 1343.13,251.489L1344.04,250.51C1347.19,248.858 1350.91,249.668 1354.67,249.744C1361.58,249.874 1368.49,249.908 1375.39,249.705C1375.39,249.705 1377.01,249.922 1374.94,249.529C1368.87,248.328 1363.94,243.518 1361.27,237.829C1361.27,237.829 1360.2,239.01 1360.2,239.01L1358.48,239.794C1336.13,244.876 1312.9,247.723 1290.42,245.982C1283.79,245.47 1277.6,242.294 1275.18,234.91C1272.8,227.644 1273.23,219.203 1276.43,212.418C1279.33,206.277 1287.3,203.701 1293.92,203.533C1305.1,203.305 1316.23,202.745 1327.36,202.256C1327.36,202.256 1326.63,202.28 1326.15,202.297ZM1391.87,244.14C1389.09,246.711 1385.69,248.59 1382,249.419C1382,249.419 1384.55,249.216 1386.32,248.447C1388.55,247.482 1390.44,245.866 1391.99,244.022C1391.95,244.061 1391.91,244.101 1391.87,244.14ZM884.54,239.027C885.38,239.66 885.579,239.826 885.579,239.826L885.869,238.448C885.426,238.641 884.983,238.834 884.54,239.027ZM831.088,237.959C831.363,237.857 831.626,237.733 831.872,237.572C831.611,237.701 831.349,237.83 831.088,237.959ZM1379.45,213.791C1371.45,214.026 1369.16,229.656 1375.32,235.727C1377.07,237.46 1380.1,237.432 1382.07,235.779C1383.19,234.845 1384.38,233.053 1384.38,233.053C1386.72,226.873 1385.66,219.559 1381.54,214.336C1381.54,214.336 1380.47,213.783 1379.45,213.791ZM648.651,235.679C648.236,235.264 647.496,234.864 647.496,234.864C647.881,235.136 648.266,235.408 648.651,235.679ZM1349.01,214.505C1330.16,214.87 1310.87,216.202 1292.44,216.504C1286.87,216.626 1285.34,226.707 1288.09,232.33C1288.09,232.33 1289.15,232.877 1290.48,232.99C1309.74,234.569 1328.98,232.615 1347.83,228.831C1347.41,224.076 1347.94,219.258 1349.21,214.652C1349.21,214.652 1349.5,214.497 1349.01,214.505ZM880.39,222.345C879.576,222.563 878.384,222.909 878.384,222.909C878.628,223.001 878.87,223.095 879.112,223.19C880.303,223.664 879.613,223.326 880.322,222.45C880.322,222.45 880.462,222.326 880.39,222.345ZM863.824,214.344L861.666,213.906C861.813,214.363 861.811,214.386 861.862,214.582C862.081,215.457 861.63,216.691 862.735,215.748C863.786,214.871 865.557,213.847 865.557,213.847C864.979,214.013 864.401,214.178 863.824,214.344ZM1391.48,206.177C1393.77,208.984 1395.81,212.026 1397.02,215.43C1396,211.9 1394.13,208.564 1391.42,206.089C1391.42,206.089 1391.22,205.868 1391.48,206.177ZM1364.51,201.896C1365.78,202.727 1366.27,202.798 1366.95,204.243C1367.24,204.864 1366.92,206.14 1367.66,205.489C1369.36,204.019 1371.27,202.807 1373.36,201.991C1373.36,201.991 1368.13,201.833 1364.1,201.766C1364.1,201.766 1363.14,201.609 1364.51,201.896ZM1342.26,200.596C1341.09,201.371 1341.12,201.479 1339.75,201.774C1340.88,201.738 1342.01,201.705 1343.14,201.673C1343.93,201.652 1345.51,201.983 1344.26,201.42C1342.9,200.803 1342.93,199.657 1342.26,200.596Z" style="fill:rgb(255,224,0);"/>
    </g>
    <g transform="matrix(0.848952,0,0,0.848952,4.27818,4.0417)">
        <path d="M1348.52,5.451C1352.73,5.057 1356.98,4.844 1361.24,4.818C1361.64,4.817 1362.05,4.817 1362.46,4.818C1392.29,5.007 1421.42,14.666 1446.44,31.135C1477.44,51.54 1501.62,81.227 1518.57,113.732C1545,164.423 1554.64,223.219 1549.4,279.971C1543.52,343.713 1519.83,406.269 1470.16,449.03C1444.01,471.541 1410.69,486.029 1376.3,489.205C1313.76,500.668 1161.46,477.464 1141.78,472.124C1112.78,464.251 1086.25,435.466 1085.2,434.276C1084.89,433.932 1084.37,433.258 1083.66,432.321C1069.44,417.645 1057.77,400.442 1048.57,382.401C1032.3,350.492 1022.91,315.307 1019.98,279.43L1019.04,279.415L972.578,282.052L971.855,283.971C967.249,291.379 962.2,299.176 955.555,303.593C955.555,303.593 952.1,335.177 952.1,335.177C956.202,352.883 957.832,370.911 958.605,388.956C959.363,406.657 959.127,424.522 955.261,441.782C950.796,461.715 942.395,480.581 932.867,498.719C932.867,498.719 929.551,503.241 926.563,507.446C923.608,511.606 920.717,516.012 918.495,520.542C917.236,524.323 915.973,528.1 914.707,531.875C914.428,533.675 914.323,535.479 914.427,537.279C914.897,546.103 913.266,554.771 911.027,563.583C910.721,564.816 910.471,566.062 910.33,567.327C910.296,567.595 910.296,567.595 910.259,567.863C907.15,588.831 899.247,609.167 894.167,630.785C891.384,642.631 885.629,653.484 877.139,662.631C875.132,664.777 872.647,666.676 871.417,669.249C871.388,669.309 871.353,669.404 871.354,669.399L871.358,669.384C871.358,669.384 870.846,671.132 870.846,671.132C869.105,674.843 868.273,679.053 867.689,683.231C865.683,697.578 869.98,712.032 873.155,726.792C873.54,728.582 873.909,730.373 874.263,732.167C876.373,739.469 878.237,746.819 879.714,754.226C880.428,757.802 880.618,761.488 881.284,764.934C882.397,770.699 884.655,776.13 887.599,781.283C890.224,785.006 893.199,788.598 896.281,792.076C913.767,811.809 935.417,827.733 957.994,841.601C957.994,841.601 959.598,841.997 961.182,842.252C980.25,845.382 999.404,849.518 1016.66,857.812C1028.59,863.549 1038.89,873.041 1048.88,882.572C1062.09,895.175 1073.62,909.647 1079.31,927.032C1082.87,937.912 1086.2,948.942 1086.5,960.415C1086.71,968.907 1085.8,977.396 1084.74,985.838C1082.14,1005.92 1069.92,1023.94 1055.71,1038.74C1043.6,1051.36 1028.5,1060.43 1012.44,1067.93C1012.79,1070.51 1013.47,1074.6 1014.69,1081.03C1017.53,1096.07 1011.68,1141.33 1009.63,1166.9C1008.02,1186.88 1010.98,1205.82 1012.63,1217.09C1013.8,1225.09 1016.14,1242.58 1017.69,1245.25C1018.52,1246.69 1019.94,1248.49 1021.56,1250.5C1021.95,1250.96 1022.32,1251.42 1022.69,1251.89C1026.16,1256.16 1030.19,1261.22 1031.79,1265.99C1035.89,1278.18 1037.99,1291.14 1039.07,1300.86C1040.31,1306.3 1041.47,1311.75 1042.58,1317.2C1042.58,1317.2 1043.06,1319.58 1042.14,1321.42C1041.27,1323.18 1039.45,1324.13 1037.49,1324.7L926.44,1338.12L925.154,1338.13L872.489,1333.13C870.555,1332.63 868.742,1331.75 867.809,1330.07C866.46,1327.64 866.734,1324.82 866.877,1322.2C867.705,1307.01 877.757,1293.11 889.11,1283.38C895.059,1278.28 901.678,1274.03 908.45,1270.11C918.4,1264.22 927.558,1255.98 934.627,1246.8C936.105,1244.88 937.863,1242.87 938.166,1240.56C938.33,1239.11 938.126,1237.55 938.075,1236.02C936.796,1197.93 921.805,1161.64 898.993,1129.8C889.932,1117.16 879.447,1105.2 871.498,1092.17C871.095,1091.52 870.684,1090.87 870.266,1090.23C870.147,1090.07 870.068,1089.94 869.977,1089.79C867.448,1085.94 864.685,1082.27 861.917,1078.59L861.677,1078.28C815.755,1079.6 770.092,1083.2 725.64,1077.29C705.39,1074.6 685.764,1068.26 666.147,1060.37C657.35,1056.84 649.185,1051.9 640.987,1048.33L641.037,1048.41C651.556,1066.81 652.429,1087.17 646.24,1116.76C644.338,1125.86 639.704,1139.86 637.448,1149.05C636.999,1150.87 636.628,1153.11 636.325,1155.68C637.404,1178.16 638.514,1200.88 643.495,1222.3C644.311,1225.8 645.099,1229.62 646.935,1232.27C646.935,1232.27 650.695,1234.82 652.966,1238.57C660.396,1250.87 663.521,1265.69 666.229,1279.94C667.684,1287.6 669.201,1295.47 668.286,1303.09C668.124,1304.44 667.837,1305.79 667.327,1307.06L666.091,1308.97C664.243,1310.28 664.216,1310.29 662.014,1310.81L473.161,1318.81C471.051,1318.54 469.025,1317.83 467.9,1316.12C466.385,1313.83 466.414,1310.67 466.539,1307.61C467.064,1294.81 476.036,1282.92 485.603,1276.35C501.721,1265.27 521.318,1259.82 538.683,1248.26C548.42,1241.78 557.572,1233.38 563.364,1224.19C565.449,1220.88 567.177,1216.99 565.546,1213.45C565.546,1213.45 564.236,1208.45 563.321,1203.74C561.032,1192.07 558.089,1180.52 553.787,1169.47C547.773,1154.02 538.274,1140.12 532.512,1124.82C521.663,1096.01 515.245,1065.69 510.392,1035.12C507.429,1015.97 510.226,995.388 507.461,976.393C506.89,972.469 506.949,968.467 507.936,964.547C512.16,947.764 527.389,935.935 540.372,928.34L540.353,928.35C566.403,911.522 597.186,902.541 627.757,896.76C643.459,893.79 659.389,891.982 675.391,891.637L675.76,891.63C675.245,891.207 674.732,890.782 674.218,890.357C649.397,869.694 626.216,846.769 612.544,817.878C599.806,790.962 589.99,762.065 584.2,733.674C580.098,713.558 576.587,693.284 573.914,672.865C570.481,669.592 568.354,667.194 568.354,667.194C564.836,664.207 561.687,661.115 558.858,657.937C556.009,655.443 553.234,652.887 550.592,650.221C550.592,650.221 546.796,645.369 543.939,640.93C537.989,631.685 531.919,622.222 528.512,611.934C527.257,608.144 527.556,604.106 526.348,600.299C524.445,594.302 520.946,588.987 518.457,583.064C511.754,567.114 511.582,548.747 518.95,532.746C522.067,525.975 526.206,519.726 530.639,513.714C530.639,513.714 530.787,511.596 530.712,509.28C530.137,490.521 529.669,471.363 535.607,454.316C540.667,439.786 546.689,425.657 553.914,411.931C559.248,401.518 558.262,388.586 563.245,377.499C564.741,374.143 566.196,370.765 567.435,367.303L577.136,323.784L499.772,337.18C499.776,337.252 499.781,337.325 499.785,337.4C502.578,383.906 496.568,432.662 472.195,472.075C450.296,507.485 412.205,531.859 370.132,538.349C323.011,549.784 253.334,560.202 216.145,559.09L214.957,559.247C201.085,558.343 187.236,559.134 173.994,555.364C132.36,543.509 98.748,509.127 78.465,472.389C69.16,455.537 62.054,437.491 56.944,418.936L29.532,423.008C29.532,423.008 30.099,422.872 29.38,423.04C23.322,424.362 16.639,422.472 12.527,417.787C2.032,405.827 2.681,383.429 14.599,377.336C16.639,376.293 18.836,375.558 21.078,375.053L47.887,368.451C46.24,350.124 46.3,331.892 47.883,314.378C50.677,283.471 59.52,252.57 77.685,227.002C95.882,201.389 122.793,182.904 152.656,171.606C175.068,161.771 198.88,155.162 222.918,149.689C257.235,141.875 292.104,136.899 327.25,133.902L328.779,133.806C328.987,133.821 329.196,133.836 329.405,133.852C329.443,133.859 329.482,133.866 329.52,133.874C333.529,133.557 337.549,133.402 341.567,133.404C376.003,133.545 409.631,147.666 434.69,173.091C469.239,208.146 486.426,257.422 495.369,304.661C523.571,299.347 551.799,294.136 580.121,289.443C580.586,286.461 581.441,283.519 582.949,280.663C584.915,276.942 588.594,274.408 592.204,271.982C598.749,267.584 605.916,263.937 613.229,261.285C613.377,261.23 613.524,261.174 613.671,261.117C616.223,260.1 617.524,257.454 619.676,255.838C625.989,251.099 635.312,252.99 642.25,258.455C642.25,258.455 651.097,257.204 655.722,261.179C655.959,261.383 656.195,261.59 656.43,261.797C661.669,266.443 666.287,271.927 669.619,278.01C674.831,277.113 680.047,276.274 685.26,275.404C744.76,265.479 804.697,257.63 864.58,251.938C866.086,247.664 868.47,243.768 872.237,240.785C876.504,237.407 881.158,234.728 885.556,231.777C889.183,229.344 893.834,228.571 897.955,230.004L899.974,231.189L901.385,233.057L901.975,235.323L901.875,236.04C903.837,233.295 906.772,230.929 910.4,229.864C920.776,226.818 934.108,225.334 944.926,225.245C945.135,225.244 945.344,225.244 945.553,225.244C956.447,225.293 962.752,233.414 970.16,241.947L1019.43,238.018C1020.23,223.354 1022.07,208.739 1024.93,194.348C1032.65,155.542 1048.03,118.061 1073.46,87.218C1092.01,64.725 1116.44,46.301 1144.34,37.847C1144.4,37.815 1144.46,37.784 1144.53,37.754C1160.4,30.286 1262.25,9.193 1348.52,5.451ZM893.422,241.191C891.262,240.973 889.082,244.37 886.228,246.108C882.226,248.509 878.067,250.922 875.895,255.093C875.05,256.752 874.501,258.686 874.212,260.693C874.45,262.846 874.577,265.137 874.869,267.278C875.249,270.062 875.585,273.002 876.636,275.549C876.953,276.217 877.294,276.874 877.658,277.517C877.746,277.653 877.838,277.788 877.933,277.92C878.266,278.375 878.399,278.377 878.589,278.608C879.052,279.171 879.377,279.81 879.574,280.485C881.778,283.49 884.503,285.99 887.536,287.533C888.034,287.786 888.723,288 888.723,288L890.85,289.004L892.426,290.749L893.211,292.966C895.078,305.919 896.025,319.379 892.22,331.036C884.595,354.394 870.947,375.704 865.869,399.669C863.755,409.646 863.057,419.885 863.258,430.033C863.357,437.7 862.576,445.592 860.754,452.375C859.467,457.169 857.809,461.941 857.041,466.763C857.041,466.763 856.853,469.02 856.113,470.414C853.345,475.632 847.14,477.075 842.122,481.076C825.776,494.106 814.145,512.615 804.329,530.989C800.013,539.07 796.307,547.471 793.032,555.995C789.897,563.956 780.994,568.818 775.004,574.303C773.966,575.254 773.152,576.433 772.329,577.589C768.703,582.704 765.173,587.888 761.89,593.216L761.841,593.296C761.099,594.27 761.096,594.273 760.171,595.075L742.84,607.251C741.277,607.998 740.878,608.429 739.073,608.333C738.411,608.298 737.78,608.044 737.133,607.9L699.498,592.613C696.84,591.052 695.235,588.167 693.494,585.567C690.523,581.129 687.363,576.682 685.581,571.997C679.882,556.922 674.434,541.682 669.512,526.495C664.823,512.182 655.783,498.12 641.693,491.19C638.166,489.455 634.571,487.86 630.95,486.322C630.192,486.463 629.391,486.517 628.567,486.469C605.915,485.249 582.192,488.34 563.441,500.216C554.811,505.683 546.88,512.444 540.533,520.386C540.237,520.869 539.906,521.367 539.536,521.872C530.565,534.196 523.533,548.214 525.581,563.901C527.456,578.255 537.89,590.536 539.263,603.862C544.936,607.576 552.532,613.005 555.169,617.002C559.575,623.68 561.037,637.035 561.037,637.035L566.433,648.627C567.455,649.471 568.485,650.317 569.491,651.182C573.698,654.795 577.965,658.338 582.262,661.844L583.018,662.459L583.334,662.837L598.683,673.165C623.006,674.686 642.311,649.649 668.19,627.677C661.442,648.31 624.476,690.003 606.795,690.915C600.625,691.233 593.746,688.056 587.533,683.93C592.58,719.17 599.735,754.006 612.322,786.702C620.227,807.237 629.599,826.93 644.337,844.428C659.771,862.752 677.716,879.067 697.083,893.009L697.225,893.111C698.07,893.99 698.631,894.418 699.037,895.125L711.307,904.851L676.102,903.583C639.125,904.02 601.971,912.512 568.674,927.028C553.559,933.617 538.391,941.482 527.02,954.548C522.1,960.202 518.186,966.942 519.336,974.664C522.073,993.91 519.408,1013.18 522.162,1032.7L522.204,1032.98C526.966,1063.76 533.527,1094.03 544.702,1123.11C548.393,1132.56 554.158,1141.33 558.683,1150.75C567.171,1168.41 572.323,1187.53 576.102,1206.63C576.161,1206.93 576.221,1207.23 576.283,1207.52C577.073,1211.21 578.74,1215.06 577.896,1219.91C576.051,1230.53 567.89,1238.6 560.351,1245.63C552.777,1252.7 544.636,1259.11 535.581,1264.07C522.281,1271.36 507.95,1276.85 494.897,1284.65C489.343,1287.97 485.205,1292.97 481.588,1298.58C480.065,1300.99 479.031,1303.71 478.66,1306.55C478.66,1306.55 656.49,1299.04 656.49,1299.04C656.412,1284.49 652.476,1270.25 647.709,1256.4C646.077,1251.67 644.633,1246.48 641.443,1243.02C641.328,1242.89 640.346,1242.43 639.528,1241.78C638.765,1241.17 638.09,1240.49 637.487,1239.74C631.441,1233.4 624.316,1205.48 619.937,1159.9L605.837,1132.29C605.837,1132.29 613.75,1134.29 619.507,1132.29C622.923,1131.11 626.344,1124.07 628.561,1118.54C630.037,1112.58 631.519,1106.57 632.414,1100.41C633.046,1092.82 633.234,1083.09 631.034,1076.83C623.224,1054.6 591.495,1030.24 591.495,1030.24L613.552,1030.26C615.265,1029.92 618.224,1029.94 620.585,1029.95C629.415,1030.01 638.387,1032.07 646.018,1036.23C654.608,1040.87 664.006,1044.26 673.414,1047.38C693.583,1054.05 714.489,1058.25 735.869,1059.09C765.466,1060.24 795.483,1059.95 824.349,1053.67C832.454,1051.9 841.046,1049.98 847.578,1045.23C842.532,1034.98 837.543,1024.7 832.627,1014.39C832.627,1014.39 828.123,1010.51 824.686,1007.23C818.337,1001.17 813.201,993.815 810.959,985.01C807.835,972.741 809.568,959.598 816.559,948.554C832.68,923.087 858.873,903.779 889.249,899.628C911.117,896.639 925.193,893.917 938.282,892.804C942.767,892.423 963.45,891.854 967.65,893.085C977.869,896.081 980.448,900.499 980.448,900.499C980.448,900.499 971.713,900.048 967.904,900.247C962.332,900.537 955.349,901.617 947.016,902.24C928.841,903.6 910.201,909.133 891.765,911.4C864.465,914.91 839.593,933.042 825.298,957.262C818.942,968.03 819.985,983.345 827.615,992.834C831.454,997.608 836.147,1001.72 840.946,1005.44L842.69,1007.61C854.783,1033.05 867.274,1058.09 879.971,1083.02C882.498,1087.04 885.01,1091.14 887.847,1095.03C896.266,1106.57 905.372,1117.66 913.416,1129.49C935.702,1162.26 949.762,1200.27 950.17,1240.44C950.17,1240.44 949.63,1245.07 948.025,1248.16C942.165,1259.46 931.507,1268.16 921.163,1275.92C913.775,1281.47 905.711,1285.8 898.364,1291.54C895.264,1294.9 892.331,1298.4 890.393,1302.52C889.638,1304.12 888.946,1305.76 888.263,1307.39C888.263,1307.39 887.336,1308.79 886.094,1308.51C884.897,1308.25 884.767,1307.07 885.122,1305.57C881.914,1310.46 879.554,1315.94 878.952,1321.68L878.951,1321.69C954.333,1328.85 954.384,1322.65 1029.56,1313.58C1026.58,1299.67 1023.41,1285.92 1019.25,1272.39L1009.19,1254.9C1006.23,1251.95 1003.2,1248.9 1001.36,1245.05C999.405,1240.92 999.59,1235.88 999.23,1230.96C997.376,1205.62 992.969,1180.76 994.741,1154.89C995.916,1137.75 999.225,1120.63 998.586,1103.76C998.331,1097.03 996.647,1090.42 995.416,1083.75C994.885,1080.86 994.353,1077.97 993.824,1075.08C993.767,1074.8 993.709,1074.52 993.647,1074.25C987.964,1048.96 971.775,1026.07 955.654,1006.93C955.654,1006.93 953.354,1003.45 954.644,1000.52C955.487,998.601 957.397,997.199 959.482,996.97C960.283,996.882 960.477,996.947 960.736,996.964C964.498,997.475 963.843,997.998 965.369,999.837C975.089,1011.55 984.052,1023.96 991.331,1037.07C997.077,1036.91 1030.93,1035.49 1045.3,1023.81C1058.32,1013.23 1072.34,984.46 1074.48,960.74C1074.38,957.028 1074.02,953.326 1073.3,949.649C1070.02,932.863 1063.54,916.955 1052.29,903.585C1042.8,892.326 1031.7,882.209 1019.96,873.588C1011.48,867.361 1001.08,864.021 990.741,861.048C981.507,858.392 972.117,856.261 962.652,854.643C958.354,854.431 955.69,854.409 955.69,854.409L953.16,852.624C952.83,852.474 952.512,852.313 952.242,852.149C951.628,851.776 951.017,851.399 950.407,851.021C924.09,834.703 898.605,815.742 880.529,791.791C878.284,788.817 876.195,785.717 874.337,782.503C871.103,777.777 868.211,772.83 866.118,767.54L865.956,767.12L819.04,664.038C818.752,662.949 818.958,661.913 819.805,661.01L848.025,639.615L859.254,586.842C859.254,586.842 859.931,585.509 861.916,584.413C872.069,578.736 881.883,570.634 883.869,559.957C885.523,551.065 887.149,541.999 890.099,533.524C890.099,533.524 882.137,520.628 882.137,520.628L881.78,519.594L881.898,518.506L882.469,517.573L906.575,492.711L915.593,465.959C916.231,464.652 917.124,463.474 917.92,462.236C927.772,446.861 937.861,431.342 941.609,413.382C943.968,402.082 945.447,390.602 946.584,379.075C945.628,364.973 943.582,350.967 940.254,337.23L940.058,334.939L943.894,298.862C944.536,296.689 945.655,294.703 947.662,293.913C947.976,293.789 948.44,293.635 948.838,293.513C948.888,293.462 948.953,293.399 949.031,293.326C947.567,289.414 945.254,285.564 941.924,281.912C939.193,281.915 936.411,282.336 933.722,281.734C929.896,280.879 927.045,277.81 924.104,275.391C916.485,269.124 906.482,264.943 896.69,266.915C896.69,266.915 895.855,267.059 895.147,266.946C893.612,266.702 892.337,265.59 891.734,264.112L889.703,258.418C888.896,255.788 889.846,255.044 891.338,252.953C892.749,250.958 894.306,248.895 895.023,246.751C895.023,246.751 895.046,242.682 893.422,241.191ZM871.003,288.705C809.64,294.207 747.507,300.943 687.001,310.633C681.837,311.46 676.641,312.162 671.529,313.238C668.005,330.427 651.598,338.95 638.922,344.338C638.922,344.338 631.897,382.403 632.525,386.467C635.206,403.799 638.528,436.737 639.493,446.152C640.923,460.1 639.207,471.28 638.171,476.319C641.455,477.743 647.035,480.25 650.59,482.318C666.745,491.718 676.694,510.021 681.991,526.091C686.63,540.064 691.598,554.021 696.801,567.742C698.64,572.593 702.014,576.759 704.988,581.149L705.685,582.174L738.619,595.551L752.27,585.961C755.953,580.082 759.882,574.336 763.938,568.693C763.938,568.693 768.978,563.662 774.077,559.739C777.349,557.204 780.816,554.419 782.054,551.092C792.242,523.716 807.527,497.598 828.539,477.121C832.66,473.105 837.051,469.449 842.233,466.754C843.513,466.074 845.187,464.902 845.187,464.902C846.921,453.997 851.444,444.522 851.26,430.23C850.847,409.444 854.903,388.259 863.239,368.872C869.657,353.944 877.774,339.376 881.897,323.664C883.988,315.7 882.809,307.159 881.845,298.682C881.845,298.682 882.002,298.196 881.254,297.777C877.273,295.51 873.854,292.354 871.003,288.705ZM142.039,527.24C148.564,531.787 155.467,535.753 162.734,538.907C154.753,534.56 147.217,530.314 142.039,527.24ZM204.691,166.375C194.188,169.284 183.796,172.554 173.548,176.237C170.454,177.349 167.378,178.51 164.326,179.731C135.729,200.425 117.907,233.597 108.477,265.979C87.166,339.155 99.087,423.057 141.67,484.257C156.974,506.253 176.815,525.634 200.717,537.162C215.922,538.434 232.046,538.799 248.017,538.185C246.77,537.624 245.53,537.039 244.298,536.432C213.634,521.313 189.897,494.962 173.159,466.262C131.834,395.403 125.824,303.216 158.242,229.734C168.923,205.523 184.253,182.929 204.691,166.375ZM275.148,151.867C260.088,154.064 245.094,156.735 230.259,160.023C228.72,160.811 227.199,161.637 225.699,162.498C193.733,180.848 172.386,214.149 160.482,247.647C135.919,316.772 143.716,397.774 180.125,460.932C200.314,495.952 230.035,526.609 269.766,536.718C282.828,535.442 295.441,533.458 306.976,530.725C304.428,529.664 301.915,528.518 299.446,527.29C272.507,513.9 250.679,491.764 234.417,467.075C210.211,430.324 196.999,386.577 194.096,342.406C190.893,293.674 199.572,244.177 226.566,201.164C238.909,181.494 255.38,164.092 275.148,151.867ZM139.209,190.564C108.808,206.081 83.894,231.731 71.262,264.295C56.696,301.845 56.4,344.053 61.703,382.621C68.197,429.844 87.058,476.028 121.264,509.803C126.077,514.556 131.18,519.077 136.562,523.223C147.452,528.228 162.322,532.084 179.291,534.666C156.951,519.407 138.979,498.062 125.479,475.078C83.227,403.146 77.649,309.437 109.969,236.452C117.348,219.79 126.904,204.029 139.209,190.564ZM483.58,306.888C483.459,306.271 483.344,305.653 483.225,305.038C476.449,270.245 465.393,235.873 445.979,206.291C427.395,177.974 399.57,154.926 366.134,147.925C342.565,142.99 317.394,144.866 295.505,154.42C258.185,170.709 231.847,206.888 217.987,247.136C205.713,282.779 202.854,321.441 207.773,358.923C214.176,407.714 234.111,455.83 268.245,489.839C293.931,515.431 329.133,531.976 366.174,526.78C406.075,521.182 442.939,498.509 463.893,462.594C485.094,426.254 490.259,381.905 487.87,339.241L437.445,347.972C438.618,373.641 433.384,400.307 416.96,420.591C398.899,442.897 366.581,453.265 338.595,442.154C318.626,434.225 302.826,417.289 292.882,399.019C284.117,382.915 279.126,364.873 277.558,346.55C275.171,318.667 281.009,289.252 298.662,267.867C312.022,251.683 332.307,241.263 353.509,240.967C353.829,240.963 354.149,240.962 354.469,240.962C370.909,241.027 387.041,247.63 399.551,258.374C416.688,273.092 427.409,294.435 432.612,316.489C449.605,313.333 466.589,310.102 483.58,306.888ZM628.826,265.017C628.16,265.106 627.454,265.308 626.752,265.585C625.651,266.797 624.037,268.412 621.888,269.932C621.535,271.481 620.989,274.098 620.736,276.47C620.277,280.766 620.025,285.08 619.882,289.395C619.882,289.395 619,293.06 615.679,293.919C615.388,293.995 615.098,294.073 614.808,294.153C606.488,296.473 598.232,301.308 594.387,309.373C593.008,312.265 592.13,315.366 591.445,318.499C591.445,318.499 591.017,319.453 590.197,320.35L579.104,370.157C577.784,374.889 575.403,379.528 573.433,384.1C571.58,388.554 571.108,393.551 570.142,398.438C568.628,406.037 566.568,413.484 563.017,420.425C555.909,434.385 549.344,448.608 545.098,463.959C543.117,471.122 542.895,478.725 542.651,486.252C542.493,491.155 542.452,496.061 542.513,500.966C553.199,491.339 565.822,483.89 579.582,479.842C592.88,475.93 606.819,474.346 620.731,474.282C620.995,474.282 621.258,474.281 621.521,474.282C622.134,474.283 622.748,474.287 623.361,474.294C623.77,472.714 624.133,471.127 624.443,469.531L625.631,458.448C625.655,456.727 625.6,454.992 625.458,453.239C623.822,433.122 618.704,413.359 617.214,393.248L616.062,386.467C616.062,386.467 612.764,344.78 620.646,332.571C626.07,324.171 628.744,322.208 635.94,317.595C639.993,314.996 641.54,312.24 642.083,310.166C639.372,305.079 638.827,298.667 639.307,293.423C639.433,292.041 639.626,290.664 639.894,289.303L639.894,289.276C639.811,280.668 637.758,271.697 631.933,265.981C630.859,265.43 629.793,265.072 628.826,265.017ZM1361.29,16.818C1333.44,16.991 1306.16,26.066 1282.84,41.694C1233.42,74.795 1203.17,132.125 1191.95,192.205C1177.84,267.703 1192.12,349.694 1238.31,410.431C1262.22,441.866 1296.04,467.379 1335.48,475.265C1385.93,485.352 1440.06,464.518 1475.04,427.84C1526.37,374.023 1544.94,292.576 1537.19,218.346C1531.47,163.545 1510.93,109.789 1472.51,68.865C1444.64,39.185 1406.79,17.912 1365.2,16.859C1363.89,16.826 1362.59,16.815 1361.29,16.818ZM1218.9,33.381C1206.27,35.081 1194.33,37.012 1183.21,39.054C1179.47,41.743 1174.85,43.804 1170.75,46.458C1146.9,61.903 1127,83.357 1112.24,107.511C1082.86,155.596 1072.19,213.612 1074.1,269.113C1076.11,327.392 1092.79,386.254 1131.42,430.926C1138.67,439.304 1146.79,447.068 1155.7,453.65C1164.2,454.15 1173.24,453.959 1182.87,453.076C1167.94,438.945 1156.07,421.287 1146.79,403.061C1108.27,327.426 1105.34,232.984 1130.02,154.536C1144.5,108.504 1171.02,65.109 1211.67,37.952C1214.04,36.366 1216.45,34.842 1218.9,33.381ZM1283.86,26.819L1281.07,27.65C1268.35,28.278 1256.02,29.227 1244.16,30.416C1217.15,41.643 1193.27,60.712 1175.17,84.322C1146.02,122.335 1131.3,169.527 1125.94,216.395C1118.86,278.369 1126.26,343.243 1154.29,398.62C1164.31,418.403 1177.48,437.691 1194.06,451.777C1210.41,449.494 1228.38,445.388 1248.17,439.45C1231.65,423.05 1217.74,403.799 1207.11,383.516C1167.9,308.661 1164.34,215.994 1195.12,137.514C1212.73,92.583 1241.7,51.702 1283.86,26.819ZM1154.05,47.664C1152.63,48.009 1151.17,48.344 1149.76,48.738C1115.79,58.212 1087.48,84.816 1069.14,113.59C1035.12,166.935 1024.97,234.503 1034.42,297.594C1041.04,341.875 1057.2,385.136 1088.12,419.483C1097.45,429.847 1108.28,439.153 1120.28,446.514C1126.37,448.794 1132.82,450.549 1139.65,451.776C1127.76,441.078 1117.53,428.544 1109.03,415.621C1063.61,346.543 1055.78,253.728 1074.67,176.877C1086.96,126.893 1113.22,79.197 1154.05,47.664ZM424.039,318.074C417.848,292.431 403.733,267.973 380.992,256.225C350.511,240.478 309.175,256.167 293.558,293.099C277.209,331.764 286.574,379.06 309.584,408.782C324.517,428.072 347.915,441.67 372.928,437.3C391.871,433.991 408.415,420.958 417.656,403.889C426.528,387.503 429.472,368.247 428.792,349.47L407.036,353.237C404.949,361.4 401.831,369.528 394.71,374.479C394.071,375.183 393.207,375.846 392.081,376.436C380.906,382.287 367.253,384.197 355.22,382.448L354.029,382.264C341.351,376.219 334.174,361.967 331.906,348.469C329.756,335.68 332.305,321.618 342.106,311.957C342.106,311.957 345.269,309.787 348.333,308.454C355.647,305.27 363.589,303.695 371.675,303.656C372.265,303.595 372.87,303.577 373.473,303.581C384.457,303.752 395.347,309.859 400.593,318.539C401.273,319.663 401.914,320.811 402.52,321.979C409.696,320.698 416.868,319.394 424.039,318.074ZM49.214,380.483C40.753,382.567 32.291,384.651 23.83,386.734C22.06,387.17 19.63,388.241 19.548,388.329C17.13,390.993 17.244,396.194 17.836,400.551C18.535,405.69 20.286,412.742 26.738,411.334L27.112,411.236L54,407.241C51.975,398.38 50.386,389.436 49.214,380.483ZM1471.16,288.406C1462.12,326.257 1437.76,361.938 1400.34,370.254C1378.53,375.103 1354.85,368.896 1337.04,355.015C1306.9,331.512 1292.55,291.352 1292.83,252.06C1293.02,225.309 1299.81,198.544 1314.69,175.941C1329.9,152.839 1354.53,134.848 1383.68,134.429C1384.15,134.424 1384.61,134.423 1385.07,134.425C1403.13,134.599 1420.64,141.701 1434.54,154.134C1453.04,170.693 1464.16,193.96 1470.19,218.751C1470.39,219.571 1470.33,220.423 1470.09,221.216C1480.52,221.058 1491.13,221.096 1502.2,221.485C1503.05,221.516 1503.9,221.548 1504.76,221.581C1508.18,221.718 1511.62,221.636 1515.02,222.082C1518.72,222.568 1524.87,223.997 1530.25,230.957C1537.89,240.857 1538.63,257.739 1534.59,269.612C1531.61,278.366 1525.11,287.554 1512.73,288.247C1499.01,289.015 1485.05,288.793 1471.16,288.406ZM358.501,317.451C355.575,318.314 352.746,319.482 350.086,320.95C341.973,329.369 342.097,343.496 345.538,353.559C347.883,360.417 351.666,367.287 357.651,370.67C357.849,370.696 358.048,370.718 358.247,370.741C360.7,370.998 363.173,371.071 365.638,370.972C352.557,359.948 348.552,338.149 356.048,321.858C356.747,320.337 357.567,318.858 358.501,317.451ZM373.026,315.658C368.762,317.707 365.492,321.932 363.709,326.037C358.388,338.286 360.896,354.224 370.407,363.459C372.971,365.949 376.253,367.886 379.789,368.475C379.97,368.418 380.15,368.36 380.33,368.3C380.489,368.212 380.654,368.131 380.823,368.058C385.82,366.016 390.765,363.705 393.009,357.957C393.324,357.149 393.619,356.334 393.896,355.513L381.591,357.643C380.283,356.998 378.949,356.394 377.801,355.503C370.166,349.584 368.677,336.9 373.484,329.216L375.13,326.741C379.985,325.922 384.839,325.088 389.691,324.243C386.497,320.097 381.975,316.907 375.939,315.858C375.791,315.85 375.643,315.839 375.494,315.824C374.674,315.746 373.851,315.691 373.026,315.658ZM1461.96,221.377C1461.71,220.679 1461.52,219.911 1461.31,219.113C1454.86,193.916 1442.56,169.635 1421.69,155.019C1399.9,139.763 1369.57,139.435 1346.33,155.365C1320.41,173.128 1306.48,204.411 1302.66,234.907C1298.7,266.556 1304.75,300.015 1322.45,326.42C1333.26,342.539 1348.95,356.116 1368.2,361.164C1388.74,366.547 1411.35,360.834 1428.12,346.718C1445.59,332.017 1456.65,310.54 1462.26,288.143C1459.98,288.074 1457.71,288.005 1455.45,287.941C1433.11,287.304 1418.26,287.296 1395.98,285.117C1395.14,285.028 1392.08,283.812 1391.43,283.448C1385.73,280.259 1382.01,273.777 1380.5,267.727C1377.78,256.799 1378.35,246.722 1382.78,236.847C1385.92,229.877 1392.08,223.719 1400.45,223.439C1422.08,222.927 1441.85,221.86 1461.96,221.377ZM579.721,301.665C514.272,312.49 448.182,326.271 383.029,337.571C383.029,337.571 382.487,341.51 384.29,344.853L579.848,311.133C579.984,308.044 579.834,304.869 579.721,301.665ZM580.817,310.966C580.88,310.89 580.892,310.871 580.813,310.954L580.8,310.969L580.817,310.966ZM862.268,264.212L861.576,264.278C794.717,270.777 727.554,279.308 661.545,291.755C659.735,292.097 657.926,292.445 656.12,292.809C655.592,292.915 655.065,293.023 654.537,293.133C652.498,293.559 651.728,295.492 651.543,297.267C651.371,298.914 651.773,300.715 652.997,301.895C654.86,303.691 657.694,303.88 660.093,303.831C660.093,303.831 663.544,302.798 666.157,302.22C688.093,297.37 710.598,294.907 733.059,291.987C776.773,286.305 820.512,281.35 864.344,277.265C864.344,277.265 864.44,277.446 864.518,277.513C862.913,273.553 861.962,269.308 862.21,265.103C862.228,264.806 862.247,264.509 862.268,264.212ZM612.231,274.48C605.543,277.217 599.158,280.771 593.937,285.688C592.61,286.961 592.793,288.018 592.494,289.203C592.293,290.003 592.13,290.811 592,291.626C593.163,293.691 593.234,296.334 591.539,298.307L591.539,298.385C594.246,295.109 597.514,292.314 601.319,290.224C604.47,288.494 607.837,287.181 611.277,286.148C611.277,286.148 611.601,280.365 612.116,275.549C612.153,275.193 612.192,274.837 612.231,274.48ZM949.075,293.443C949,293.465 948.92,293.488 948.838,293.513C948.699,293.657 948.681,293.712 948.824,293.659C950.81,292.916 948.586,293.549 947.662,293.913L949.114,293.548L949.075,293.443ZM647.621,279.158L655.144,277.925C652.972,275.125 650.528,272.526 647.833,270.223C646.967,269.963 645.979,270.018 644.976,270.214C645.875,272.375 646.591,274.613 647.112,276.781C647.301,277.57 647.47,278.362 647.621,279.158ZM1518.09,233.502C1515.77,232.009 1513.05,231.102 1509.95,231.018C1509.8,231.015 1509.65,231.013 1509.5,231.014C1499.36,231.131 1491.44,242.039 1490.73,253.067C1489.98,264.687 1496.39,278.03 1508.82,278.127C1515.18,278.177 1520.74,273.873 1524.18,267.894C1527.92,258.962 1527.41,246.864 1522.62,239.418C1521.64,237.903 1519.92,235.415 1518.09,233.502ZM877.863,277.873L877.871,277.887L877.945,277.95C877.925,277.93 877.896,277.903 877.863,277.873ZM1489.88,231.849C1466.59,231.283 1438.57,233.748 1406.11,234.238C1404,234.27 1400.94,235.134 1399.18,235.702C1393.56,237.517 1391.99,243.077 1391.26,249.931C1390.44,257.617 1390.83,264.677 1394.99,269.94C1395.89,271.071 1400.35,272.891 1401.78,273.028C1424.68,275.223 1452.24,273.347 1483.65,266.145C1480.04,254.547 1482.32,240.841 1489.88,231.849ZM1018.99,252.078L965.112,254.527C960.019,255.407 953.197,254.832 948.558,256.904C948.558,256.904 943.791,260.092 940.583,263.002C939.38,264.092 935.227,269.148 933.162,271.844C933.649,272.297 934.159,272.713 934.767,272.972C937.378,274.089 940.349,273.295 943.621,273.319L1019.26,267.907C1019.03,262.637 1018.94,257.358 1018.99,252.078ZM925.083,265.383C925.064,263.755 925.859,261.81 927.174,259.973C932.16,253.008 939.59,246.832 946.774,244.868C948.814,244.31 950.901,243.939 952.988,243.615C952.988,243.615 951.214,242.056 949.957,241.12C948.364,239.934 946.703,238.558 944.792,238.31C944.77,238.308 944.748,238.306 944.726,238.305C932.56,237.892 917.28,241.11 906.359,245.882C905.696,246.172 904.51,247.14 903.463,248.063C903.194,249.602 902.685,251.101 901.936,252.486C900.965,254.28 899.836,255.986 898.668,257.656C898.668,257.656 897.705,257.951 900.212,257.912C908.979,257.828 917.634,260.59 925.083,265.383Z"/>
    </g>
    <g transform="matrix(1,0,0,1,-93.6285,-5.29807)">
        <path d="M657.731,705.259C651.875,696.849 646.671,688.016 642.44,678.64C630.08,651.251 625.305,620.873 622.621,590.958L627.693,590.504C627.72,590.809 627.748,591.115 627.775,591.421C631.242,629.35 638.54,667.828 660.183,700.033C661.155,701.479 662.154,702.923 663.18,704.365C677.392,701.501 690.75,694.733 703,687.382C729.831,671.281 744.882,657.318 771.68,641.196C774.941,639.234 791.925,631.007 792.66,632.537C755.98,650.144 728.045,682.959 687.138,701.57C685.565,702.286 683.98,702.973 682.381,703.629C677.217,705.745 671.822,707.462 666.312,708.651C683.888,732.106 708.97,757.172 723.965,773.064C733.258,782.913 753.284,804.006 753.284,804.006C753.284,804.006 702.199,759.968 680.006,732.754C673.677,724.993 666.782,717.689 660.87,709.644C645.82,711.886 630.208,709.969 616.32,701.357L619.003,697.029C628.482,702.907 639.578,706.073 650.865,705.784C653.173,705.725 655.462,705.545 657.731,705.259ZM567.616,531.406C558.793,510.272 554.413,487.138 557.659,464.734C559.775,450.135 565.757,435.692 577.88,425.925C578.944,427.247 580.009,428.569 581.074,429.89C566.043,442.001 561.262,463.421 561.825,482.03C562.321,498.404 565.906,514.842 572.213,530.061C591.854,524.03 612.181,514.168 628.948,502.395C632.782,499.703 644.485,490.853 658.161,477.672C658.161,477.672 641.725,496.288 636.718,500.393C618.158,515.607 603.96,523.968 581.951,532.42C579.463,533.375 576.948,534.261 574.405,535.064C579.891,546.929 587.07,557.934 595.759,567.437C602.296,574.588 609.921,580.836 618.727,584.894L616.596,589.518C597.088,580.529 582.903,562.499 572.828,542.676C571.78,540.615 570.772,538.527 569.808,536.417C566.202,537.398 562.547,538.2 558.85,538.786L558.053,533.757C561.2,533.088 564.394,532.301 567.616,531.406Z"/>
    </g>
    <g transform="matrix(1,0,0,1,-89.9717,-3.42004)">
        <path d="M707.804,790.31C732.752,805.711 748.37,809.991 768.526,811.492C775.779,812.033 788.113,807.991 794.033,805.503C798.538,803.609 805.633,799.264 810.057,797.157L798.726,808.807C787.485,814.159 780.108,816.9 767.316,816.402C742.658,815.441 717.807,798.944 707.804,790.31Z"/>
    </g>
    <g transform="matrix(0.994552,0.104243,-0.104243,0.994552,-33.2464,-84.8339)">
        <path d="M914.827,723.05C914.827,723.05 914.991,737.533 907.412,748.782C901.326,757.815 892.037,767.604 889.414,769.307L875.934,770.393C881.384,766.854 897.796,753.305 904.911,744.062C913.016,733.533 914.827,723.05 914.827,723.05Z"/>
    </g>
    <g transform="matrix(1,0,0,1,-93.6285,-5.29807)">
        <path d="M839.057,794.058C854.372,794.184 870.334,795.675 882.729,803.824C886.583,806.358 889.447,810.361 891.483,814.645C898.02,828.407 897.253,853.911 883.813,863.645C872.568,871.789 857.992,875.368 843.763,874.222C824.138,872.643 822.599,870.108 816.263,866.709C816.263,866.709 828.761,869.94 843.24,869.806C853.472,869.711 865.226,867.023 871.914,864.347C881.28,860.6 886.279,853.897 888.505,843.758C890.707,833.735 888.361,813.429 879.574,807.848C869.017,801.141 856.194,799.087 843.431,798.3C833.685,797.7 823.797,798.901 814.624,802.413L812.804,799.658C821.146,796.463 830.143,794.023 839.057,794.058Z"/>
    </g>
    <g transform="matrix(1,0,0,1,-93.6285,-5.29807)">
        <path d="M571.603,796.345C583.702,796.466 597.157,803.704 605.22,812.507C615.038,823.226 621.275,838.468 616.32,852.64C612.952,862.27 603.018,870.83 593.906,874.758C575.057,882.884 550.217,871.744 536.834,855.958C535.397,854.263 534.087,852.456 532.99,850.515C532.99,850.515 537.138,852.237 537.293,852.49C543.995,863.199 559.585,869.977 568.923,871.74C581.349,874.086 594.733,871.819 602.782,861.312C608.81,853.444 612.783,843.065 610.419,833.103C606.829,817.974 593.062,804.176 578.979,800.722C572.199,799.059 564.603,799.663 558.87,804.382L555.634,800.451C560.258,796.644 565.634,796.325 571.603,796.345Z"/>
    </g>
    <g transform="matrix(0.999956,0.00941527,-0.00941527,0.999956,-79.8438,-9.63361)">
        <path d="M560.847,862.611C562.155,864.36 563.533,867.415 564.024,869.472C573.514,909.275 586.999,949.505 594.163,978.048C600.124,1001.8 605.132,1031.23 607.36,1045.32C608.061,1049.76 606.353,1061.77 606.353,1061.77C598.449,1000.84 580.028,950.738 566.341,895.285C564.483,887.756 559.376,866.746 555.565,855.649C555.565,855.649 559.763,861.162 560.847,862.611Z"/>
    </g>
    <g transform="matrix(1,0,0,1,-81.7187,1.59372)">
        <path d="M600.117,808.923C647.29,809.045 694.208,819.72 738.924,831.277C743.631,832.494 749.677,834.432 753.603,836.391C756.484,837.829 762.482,843.034 762.482,843.034C720.626,831.159 666.773,818.691 623.031,815.061C603.229,813.418 586.384,811.365 567.526,816.778C563.001,818.077 546.542,822.928 546.542,822.928C554.485,815.023 573.436,810.404 584.632,809.036C591.294,808.222 593.435,808.921 600.117,808.923Z"/>
    </g>
    <g transform="matrix(1,0,0,1,-94.4263,-2.27274)">
        <path d="M731.46,527.515C734.138,543.898 736.301,563.33 746.118,575.739C752.857,584.256 767.202,591.92 774.551,593.344C784.882,595.345 795.287,593.715 805.478,590.351L808.641,596.974C795.129,601.433 778.077,602.475 765.076,597.101C748.094,590.083 735.944,575.78 731.216,546.268C730.284,540.449 731.405,527.317 731.46,527.515Z"/>
    </g>
    <g transform="matrix(1,0,0,1,-72.8081,11.5414)">
        <path d="M860.94,795.291C886.625,795.376 910.757,791.806 923.265,792.577C928.152,792.878 934.697,798.694 934.697,798.694C903.833,799.242 872.643,800.304 845.321,800.827C834.895,801.026 811.021,803.387 811.021,803.387C818.804,796.241 832.017,796.848 842.288,795.955C848.488,795.415 854.711,795.284 860.94,795.291Z"/>
    </g>
    <g transform="matrix(1,0,0,1,-89.6285,-5.29807)">
        <path d="M837.46,852.595C840.286,855.958 842.753,858.858 846.579,865.97C879.2,926.62 898.543,975.235 911.692,1009.69C915.881,1020.66 922.694,1075.09 922.694,1075.09C915.485,1052.29 915.113,1036.12 906.948,1012.86C890.331,965.517 865.943,912.78 841.343,867.03C837.433,859.757 833.517,852.662 829.626,845.792C829.626,845.792 835.695,850.493 837.46,852.595Z"/>
    </g>
    <g transform="matrix(1,0,0,1,-93.6285,-5.29807)">
        <path d="M852.787,427.803C851.67,436.587 848.881,444.99 845.443,452.177C832.259,479.737 802.247,524.686 784.489,545.611L769.561,560.855C797.361,516.215 831.552,475.287 841.817,445.678L852.787,427.803Z"/>
    </g>
    <g transform="matrix(1,0,0,1,-90.6285,-5.29807)">
        <path d="M876.75,266.82L875.332,286.751L857.679,402.549L850.999,412.245L876.75,266.82Z"/>
    </g>
    <g transform="matrix(1,0,0,1,-93.6285,-5.29807)">
        <path d="M609.024,290.81L587.709,410.792L582.078,414.53L603.186,305.606C603.186,305.606 607.352,290.516 609.024,290.81Z"/>
    </g>
    <g transform="matrix(1,0,0,1,-93.1592,0.908434)">
        <path d="M859.784,391.638C861.515,391.65 863.246,391.731 864.965,391.922C873.899,392.912 881.044,398.77 884.458,407.807C889.815,421.984 882.982,444.241 867.226,449.648C854.107,454.151 846.826,449.702 840.012,446.364C825.749,439.378 822.664,421.538 823.465,406.038C823.465,406.038 827.045,411.262 827.045,411.262C827.045,411.262 830.786,432.217 838.648,437.807C842.899,440.829 851.689,444.347 856.445,444.481C862.815,444.66 870.493,440.904 874.997,436.035C879.998,430.627 881.885,422.804 881.059,415.49C880.455,410.144 876.209,402.814 871.469,399.633C861.01,392.615 840.322,397.83 840.322,397.83L830.506,398.638C839.235,395.481 850.546,391.633 859.784,391.638Z"/>
    </g>
</svg>
